M48
; DRILL file {KiCad 6.0.11-2627ca5db0~126~ubuntu20.04.1} date Sat 01 Jul 2023 01:10:39 PM CEST
; FORMAT={-:-/ absolute / inch / decimal}
; #@! TF.CreationDate,2023-07-01T13:10:39+02:00
; #@! TF.GenerationSoftware,Kicad,Pcbnew,6.0.11-2627ca5db0~126~ubuntu20.04.1
; #@! TF.FileFunction,Plated,1,2,PTH
FMAT,2
INCH
; #@! TA.AperFunction,Plated,PTH,ComponentDrill
T1C0.0315
; #@! TA.AperFunction,Plated,PTH,ComponentDrill
T2C0.0354
; #@! TA.AperFunction,Plated,PTH,ComponentDrill
T3C0.0374
; #@! TA.AperFunction,Plated,PTH,ComponentDrill
T4C0.0394
; #@! TA.AperFunction,Plated,PTH,ComponentDrill
T5C0.0433
; #@! TA.AperFunction,Plated,PTH,ComponentDrill
T6C0.0906
%
G90
G05
T1
X5.142Y-3.983
X5.2587Y-2.6815
X5.2587Y-2.8015
X5.2587Y-2.9215
X5.2587Y-3.0415
X5.2587Y-3.1615
X5.2587Y-3.2815
X5.3045Y-3.4827
X5.3045Y-3.5811
X5.3045Y-3.6687
X5.3045Y-3.7671
X5.4855Y-3.5362
X5.4855Y-3.7283
X5.542Y-3.983
X5.6298Y-3.983
X5.6575Y-3.4319
X5.6575Y-3.8319
X5.6587Y-2.6815
X5.6587Y-2.8015
X5.6587Y-2.9215
X5.6587Y-3.0415
X5.6587Y-3.1615
X5.6587Y-3.2815
X5.7282Y-3.983
X5.8184Y-2.6834
X5.8184Y-2.7834
X5.8184Y-2.8834
X5.8184Y-2.9834
X5.8184Y-3.0834
X5.8184Y-3.1834
X5.8184Y-3.2834
X5.8184Y-3.3834
X5.8184Y-3.4834
X5.8184Y-3.5834
X5.8184Y-3.6834
X5.8184Y-3.7834
X5.8184Y-3.8834
X5.8184Y-3.9834
X5.827Y-4.1474
X5.827Y-4.2459
X6.111Y-4.1474
X6.111Y-4.2459
X6.1184Y-2.6834
X6.1184Y-2.7834
X6.1184Y-2.8834
X6.1184Y-2.9834
X6.1184Y-3.0834
X6.1184Y-3.1834
X6.1184Y-3.2834
X6.1184Y-3.3834
X6.1184Y-3.4834
X6.1184Y-3.5834
X6.1184Y-3.6834
X6.1184Y-3.7834
X6.1184Y-3.8834
X6.1184Y-3.9834
X6.2088Y-3.859
X6.2088Y-3.983
X6.2539Y-3.3484
X6.2539Y-3.4469
X6.28Y-2.682
X6.28Y-2.802
X6.28Y-2.922
X6.28Y-3.042
X6.28Y-3.162
X6.3072Y-3.859
X6.3072Y-3.983
X6.3878Y-3.3484
X6.3878Y-3.4469
X6.396Y-3.859
X6.396Y-3.983
X6.68Y-2.682
X6.68Y-2.802
X6.68Y-2.922
X6.68Y-3.042
X6.68Y-3.162
X6.796Y-3.859
X6.796Y-3.983
T2
X4.4328Y-3.642
X4.5328Y-3.642
X4.6318Y-4.379
X4.6458Y-2.903
X4.7318Y-4.379
X4.7458Y-2.903
X5.1678Y-2.354
X5.1768Y-4.909
X5.2678Y-2.354
X5.2768Y-4.909
X6.6558Y-4.913
X6.6578Y-2.36
X6.7558Y-4.913
X6.7578Y-2.36
X7.1919Y-2.8996
X7.1978Y-4.381
X7.2919Y-2.8996
X7.2978Y-4.381
X7.4098Y-3.647
X7.5098Y-3.647
T3
X5.9208Y-4.6128
X5.9208Y-4.6915
X6.0192Y-4.6128
X6.0192Y-4.6915
T4
X5.8696Y-2.4202
X5.8696Y-2.5202
X5.9696Y-2.4202
X5.9696Y-2.5202
X6.0696Y-2.4202
X6.0696Y-2.5202
T5
X4.9646Y-4.1181
X4.9646Y-4.2953
X5.2205Y-4.1181
X5.2205Y-4.2953
X5.2577Y-2.5575
X5.3406Y-4.1181
X5.3406Y-4.2953
X5.5965Y-4.1181
X5.5965Y-4.2953
X5.6577Y-2.5575
X5.6772Y-4.439
X6.0772Y-4.439
X6.502Y-4.1201
X6.502Y-4.2972
X6.758Y-4.1201
X6.758Y-4.2972
T6
X5.7338Y-4.8041
X6.2062Y-4.8041
T0
M30
