%TF.GenerationSoftware,KiCad,Pcbnew,6.0.11-2627ca5db0~126~ubuntu20.04.1*%
%TF.CreationDate,2023-07-01T13:10:39+02:00*%
%TF.ProjectId,THW_bagde,5448575f-6261-4676-9465-2e6b69636164,rev?*%
%TF.SameCoordinates,Original*%
%TF.FileFunction,Profile,NP*%
%FSLAX46Y46*%
G04 Gerber Fmt 4.6, Leading zero omitted, Abs format (unit mm)*
G04 Created by KiCad (PCBNEW 6.0.11-2627ca5db0~126~ubuntu20.04.1) date 2023-07-01 13:10:39*
%MOMM*%
%LPD*%
G01*
G04 APERTURE LIST*
%TA.AperFunction,Profile*%
%ADD10C,0.096205*%
%TD*%
G04 APERTURE END LIST*
D10*
X152210814Y-50004668D02*
X152776119Y-50017268D01*
X153341191Y-50036841D01*
X153906009Y-50063021D01*
X154470550Y-50095443D01*
X155598706Y-50177547D01*
X157074590Y-58940319D01*
X157900903Y-59087791D01*
X158723142Y-59255822D01*
X159540943Y-59444005D01*
X160353945Y-59651936D01*
X161161782Y-59879209D01*
X161964093Y-60125419D01*
X162760513Y-60390161D01*
X163550679Y-60673030D01*
X168978261Y-54119941D01*
X168988809Y-54111761D01*
X168999114Y-54102494D01*
X169009203Y-54092254D01*
X169019101Y-54081155D01*
X169038424Y-54056838D01*
X169057288Y-54030455D01*
X169094451Y-53975139D01*
X169113157Y-53948032D01*
X169132218Y-53922508D01*
X169141945Y-53910625D01*
X169151838Y-53899480D01*
X169161920Y-53889187D01*
X169172219Y-53879860D01*
X169182758Y-53871613D01*
X169193565Y-53864561D01*
X169204664Y-53858817D01*
X169216081Y-53854495D01*
X169227840Y-53851709D01*
X169239969Y-53850574D01*
X169252491Y-53851204D01*
X169265433Y-53853712D01*
X169278820Y-53858213D01*
X169292677Y-53864820D01*
X169307030Y-53873648D01*
X169321904Y-53884811D01*
X170223719Y-54307878D01*
X171114193Y-54753718D01*
X171993258Y-55221440D01*
X172860844Y-55710156D01*
X173716882Y-56218978D01*
X174561304Y-56747015D01*
X175394041Y-57293379D01*
X176215024Y-57857181D01*
X173107205Y-66168300D01*
X173751771Y-66712492D01*
X174383178Y-67271903D01*
X175001072Y-67846210D01*
X175605097Y-68435085D01*
X176194897Y-69038204D01*
X176770117Y-69655241D01*
X177330401Y-70285870D01*
X177875394Y-70929767D01*
X186075406Y-67872074D01*
X186091727Y-67861065D01*
X186107299Y-67852389D01*
X186122156Y-67845933D01*
X186136334Y-67841588D01*
X186149869Y-67839243D01*
X186162797Y-67838787D01*
X186175153Y-67840109D01*
X186186973Y-67843099D01*
X186198292Y-67847645D01*
X186209147Y-67853638D01*
X186219572Y-67860967D01*
X186229604Y-67869520D01*
X186239278Y-67879188D01*
X186248630Y-67889859D01*
X186266509Y-67913770D01*
X186283528Y-67940366D01*
X186299970Y-67968762D01*
X186332269Y-68027413D01*
X186348696Y-68055896D01*
X186365688Y-68082638D01*
X186383531Y-68106752D01*
X186392860Y-68117547D01*
X186402509Y-68127353D01*
X186941806Y-68926950D01*
X187466531Y-69736432D01*
X187975167Y-70556122D01*
X188466201Y-71386341D01*
X188938115Y-72227410D01*
X189389393Y-73079651D01*
X189818520Y-73943385D01*
X190223981Y-74818935D01*
X183377377Y-80472335D01*
X183657519Y-81262859D01*
X183922329Y-82058927D01*
X184170449Y-82860406D01*
X184400521Y-83667163D01*
X184611189Y-84479063D01*
X184801094Y-85295974D01*
X184968879Y-86117762D01*
X185113187Y-86944293D01*
X186203333Y-87130767D01*
X187296111Y-87299560D01*
X189487157Y-87600132D01*
X193874402Y-88165409D01*
X193941030Y-90244810D01*
X193964883Y-92325208D01*
X193946719Y-94405684D01*
X193887296Y-96485317D01*
X185112637Y-97960681D01*
X184969102Y-98786808D01*
X184802245Y-99608250D01*
X184613225Y-100424810D01*
X184403203Y-101236290D01*
X184173340Y-102042494D01*
X183924797Y-102843223D01*
X183658733Y-103638281D01*
X183376309Y-104427471D01*
X190061688Y-109950649D01*
X190080319Y-109958847D01*
X190097391Y-109967395D01*
X190112948Y-109976283D01*
X190127037Y-109985501D01*
X190139701Y-109995039D01*
X190150986Y-110004887D01*
X190160937Y-110015034D01*
X190169598Y-110025472D01*
X190177014Y-110036188D01*
X190183230Y-110047175D01*
X190188290Y-110058421D01*
X190192241Y-110069916D01*
X190195126Y-110081651D01*
X190196991Y-110093614D01*
X190197880Y-110105797D01*
X190197839Y-110118189D01*
X190196911Y-110130780D01*
X190195142Y-110143560D01*
X190192578Y-110156519D01*
X190189261Y-110169647D01*
X190180554Y-110196368D01*
X190169380Y-110223643D01*
X190156098Y-110251392D01*
X190141066Y-110279533D01*
X190124644Y-110307987D01*
X190107190Y-110336673D01*
X189690861Y-111218627D01*
X189251139Y-112088696D01*
X188789423Y-112947152D01*
X188307113Y-113794267D01*
X187805609Y-114630314D01*
X187286311Y-115455564D01*
X186750619Y-116270290D01*
X186199933Y-117074764D01*
X177871770Y-113978313D01*
X177326174Y-114620602D01*
X176765942Y-115250230D01*
X176191273Y-115866724D01*
X175602362Y-116469613D01*
X174999406Y-117058422D01*
X174382603Y-117632680D01*
X173752150Y-118191914D01*
X173108243Y-118735652D01*
X176103925Y-126747043D01*
X176114038Y-126775722D01*
X176125699Y-126804882D01*
X176150938Y-126863786D01*
X176163153Y-126893101D01*
X176174189Y-126922038D01*
X176183366Y-126950383D01*
X176187044Y-126964266D01*
X176190001Y-126977920D01*
X176192153Y-126991319D01*
X176193414Y-127004436D01*
X176193699Y-127017243D01*
X176192923Y-127029715D01*
X176191000Y-127041824D01*
X176187845Y-127053543D01*
X176183374Y-127064846D01*
X176177501Y-127075706D01*
X176170141Y-127086096D01*
X176161208Y-127095988D01*
X176150617Y-127105357D01*
X176138284Y-127114175D01*
X176124123Y-127122416D01*
X176108049Y-127130052D01*
X176089977Y-127137058D01*
X176069821Y-127143405D01*
X175253578Y-127701259D01*
X174425347Y-128241130D01*
X173585329Y-128762364D01*
X172733724Y-129264310D01*
X171870733Y-129746316D01*
X170996558Y-130207728D01*
X170111400Y-130647896D01*
X169215459Y-131066165D01*
X163550687Y-124226795D01*
X162761466Y-124512802D01*
X161965656Y-124779983D01*
X161163663Y-125027917D01*
X160355891Y-125256183D01*
X159542745Y-125464360D01*
X158724631Y-125652028D01*
X157886400Y-125831600D01*
X157886400Y-132892800D01*
X145338800Y-132892800D01*
X145338800Y-125882400D01*
X144881600Y-125780800D01*
X144388713Y-125649930D01*
X143570869Y-125462358D01*
X142757946Y-125254474D01*
X141950347Y-125026676D01*
X141148475Y-124779362D01*
X140352734Y-124512928D01*
X139563527Y-124227771D01*
X134119931Y-130802570D01*
X134109633Y-130811864D01*
X134099532Y-130822040D01*
X134089603Y-130832990D01*
X134079824Y-130844607D01*
X134060616Y-130869416D01*
X134041717Y-130895609D01*
X134004073Y-130948724D01*
X133984946Y-130973933D01*
X133965358Y-130997100D01*
X133955331Y-131007651D01*
X133945118Y-131017370D01*
X133934693Y-131026150D01*
X133924033Y-131033885D01*
X133913115Y-131040467D01*
X133901913Y-131045789D01*
X133890404Y-131049744D01*
X133878565Y-131052226D01*
X133866370Y-131053126D01*
X133853796Y-131052338D01*
X133840819Y-131049756D01*
X133827415Y-131045271D01*
X133813560Y-131038776D01*
X133799229Y-131030166D01*
X133784400Y-131019332D01*
X133769048Y-131006168D01*
X132869742Y-130585500D01*
X131982853Y-130140279D01*
X131107996Y-129672136D01*
X130244787Y-129182701D01*
X129392841Y-128673604D01*
X128551772Y-128146478D01*
X127721197Y-127602952D01*
X126900731Y-127044658D01*
X130004415Y-118730434D01*
X129363338Y-118186991D01*
X128734033Y-117629620D01*
X128117585Y-117057995D01*
X127515079Y-116471790D01*
X126927603Y-115870679D01*
X126356240Y-115254336D01*
X125802078Y-114622435D01*
X125266202Y-113974651D01*
X117118382Y-117000820D01*
X117101827Y-117012891D01*
X117085761Y-117023408D01*
X117070171Y-117032418D01*
X117055042Y-117039965D01*
X117040360Y-117046095D01*
X117026111Y-117050854D01*
X117012281Y-117054288D01*
X116998855Y-117056441D01*
X116985818Y-117057360D01*
X116973158Y-117057091D01*
X116960859Y-117055678D01*
X116948906Y-117053167D01*
X116937287Y-117049605D01*
X116925987Y-117045036D01*
X116914990Y-117039506D01*
X116904284Y-117033061D01*
X116893853Y-117025747D01*
X116883684Y-117017609D01*
X116873763Y-117008692D01*
X116864074Y-116999043D01*
X116845338Y-116977728D01*
X116827362Y-116954029D01*
X116810033Y-116928311D01*
X116793236Y-116900940D01*
X116776857Y-116872278D01*
X116760781Y-116842693D01*
X116210484Y-116037960D01*
X115678262Y-115221206D01*
X115164565Y-114392729D01*
X114669843Y-113552829D01*
X114194545Y-112701804D01*
X113739123Y-111839952D01*
X113304025Y-110967573D01*
X112889703Y-110084964D01*
X119738378Y-104428462D01*
X119454139Y-103639703D01*
X119188847Y-102844422D01*
X118942628Y-102043064D01*
X118715608Y-101236072D01*
X118507913Y-100423890D01*
X118319670Y-99606962D01*
X118151006Y-98785732D01*
X118002046Y-97960643D01*
X109621678Y-96551425D01*
X109609363Y-96546139D01*
X109596192Y-96541629D01*
X109582249Y-96537819D01*
X109567618Y-96534633D01*
X109536637Y-96529820D01*
X109503924Y-96526577D01*
X109436021Y-96522336D01*
X109402187Y-96520108D01*
X109369335Y-96516987D01*
X109338143Y-96512359D01*
X109323381Y-96509287D01*
X109309289Y-96505608D01*
X109295951Y-96501244D01*
X109283452Y-96496118D01*
X109271877Y-96490154D01*
X109261310Y-96483275D01*
X109251837Y-96475403D01*
X109243541Y-96466463D01*
X109236508Y-96456376D01*
X109230823Y-96445066D01*
X109226570Y-96432456D01*
X109223834Y-96418470D01*
X109222700Y-96403029D01*
X109223252Y-96386058D01*
X109152362Y-95390998D01*
X109102108Y-94394763D01*
X109072430Y-93397751D01*
X109063262Y-92400361D01*
X109074544Y-91402989D01*
X109106211Y-90406034D01*
X109158201Y-89409893D01*
X109230451Y-88414966D01*
X117999425Y-86943737D01*
X118150135Y-86118561D01*
X118319962Y-85297094D01*
X118508843Y-84479795D01*
X118716711Y-83667118D01*
X118943504Y-82859521D01*
X119189157Y-82057461D01*
X119453604Y-81261395D01*
X119736783Y-80471778D01*
X112950631Y-74868503D01*
X112939356Y-74858646D01*
X112930052Y-74848347D01*
X112922616Y-74837628D01*
X112916948Y-74826512D01*
X112912946Y-74815022D01*
X112910508Y-74803181D01*
X112909533Y-74791011D01*
X112909919Y-74778536D01*
X112911564Y-74765779D01*
X112914366Y-74752761D01*
X112918225Y-74739506D01*
X112923039Y-74726037D01*
X112935123Y-74698548D01*
X112949806Y-74670476D01*
X113018269Y-74556009D01*
X113033754Y-74527761D01*
X113046960Y-74500025D01*
X113052455Y-74486407D01*
X113057076Y-74472985D01*
X113060720Y-74459783D01*
X113063287Y-74446823D01*
X113474522Y-73580198D01*
X113909621Y-72725824D01*
X114366736Y-71883140D01*
X114844018Y-71051588D01*
X115339617Y-70230609D01*
X115851685Y-69419645D01*
X116378373Y-68618135D01*
X116917832Y-67825523D01*
X125267194Y-70929725D01*
X125801214Y-70279371D01*
X126354782Y-69646112D01*
X126926511Y-69029329D01*
X127515013Y-68428400D01*
X128118902Y-67842707D01*
X128736791Y-67271630D01*
X129367294Y-66714548D01*
X130009023Y-66170841D01*
X127039693Y-58229206D01*
X127038120Y-58215934D01*
X127035444Y-58202309D01*
X127031772Y-58188365D01*
X127027215Y-58174138D01*
X127015876Y-58144973D01*
X127002299Y-58115091D01*
X126971913Y-58054289D01*
X126956846Y-58023925D01*
X126943026Y-57993957D01*
X126931321Y-57964663D01*
X126926535Y-57950356D01*
X126922604Y-57936321D01*
X126919638Y-57922594D01*
X126917746Y-57909209D01*
X126917036Y-57896202D01*
X126917617Y-57883606D01*
X126919598Y-57871457D01*
X126923089Y-57859790D01*
X126928197Y-57848638D01*
X126935032Y-57838038D01*
X126943702Y-57828023D01*
X126954317Y-57818629D01*
X126966986Y-57809890D01*
X126981816Y-57801841D01*
X127807559Y-57240769D01*
X128643937Y-56695338D01*
X129491222Y-56167038D01*
X130349687Y-55657359D01*
X131219602Y-55167790D01*
X132101241Y-54699821D01*
X132994875Y-54254943D01*
X133900777Y-53834644D01*
X139563481Y-60673503D01*
X140353573Y-60390099D01*
X141150103Y-60125374D01*
X141952646Y-59879533D01*
X142760775Y-59652782D01*
X143574062Y-59445328D01*
X144392081Y-59257374D01*
X145214405Y-59089127D01*
X146040608Y-58940792D01*
X147412099Y-50796070D01*
X147413690Y-50768115D01*
X147416330Y-50740206D01*
X147420008Y-50712386D01*
X147424712Y-50684702D01*
X147430429Y-50657198D01*
X147437148Y-50629920D01*
X147444857Y-50602914D01*
X147453543Y-50576223D01*
X147463196Y-50549894D01*
X147473802Y-50523971D01*
X147485350Y-50498500D01*
X147497827Y-50473526D01*
X147511223Y-50449094D01*
X147525524Y-50425250D01*
X147540720Y-50402038D01*
X147556797Y-50379505D01*
X147573744Y-50357694D01*
X147591550Y-50336652D01*
X147610201Y-50316423D01*
X147629687Y-50297053D01*
X147649994Y-50278586D01*
X147671112Y-50261069D01*
X147693028Y-50244547D01*
X147715730Y-50229063D01*
X147739207Y-50214665D01*
X147763445Y-50201397D01*
X147788434Y-50189304D01*
X147814162Y-50178431D01*
X147840615Y-50168824D01*
X147867783Y-50160527D01*
X147895653Y-50153587D01*
X147924214Y-50148048D01*
X148710797Y-50091955D01*
X149499697Y-50049391D01*
X150289696Y-50019593D01*
X151079602Y-50001850D01*
X151645301Y-49999407D01*
X152210814Y-50004668D01*
M02*
