%TF.GenerationSoftware,KiCad,Pcbnew,6.0.11-2627ca5db0~126~ubuntu20.04.1*%
%TF.CreationDate,2023-07-01T13:10:39+02:00*%
%TF.ProjectId,THW_bagde,5448575f-6261-4676-9465-2e6b69636164,rev?*%
%TF.SameCoordinates,Original*%
%TF.FileFunction,Soldermask,Bot*%
%TF.FilePolarity,Negative*%
%FSLAX46Y46*%
G04 Gerber Fmt 4.6, Leading zero omitted, Abs format (unit mm)*
G04 Created by KiCad (PCBNEW 6.0.11-2627ca5db0~126~ubuntu20.04.1) date 2023-07-01 13:10:39*
%MOMM*%
%LPD*%
G01*
G04 APERTURE LIST*
%ADD10C,1.600000*%
%ADD11O,1.600000X1.600000*%
%ADD12R,1.700000X1.700000*%
%ADD13O,1.700000X1.700000*%
%ADD14R,1.800000X1.800000*%
%ADD15C,1.800000*%
%ADD16C,1.500000*%
%ADD17R,1.600000X1.600000*%
%ADD18R,2.200000X2.200000*%
%ADD19O,2.200000X2.200000*%
%ADD20C,4.000000*%
%ADD21C,2.000000*%
%ADD22C,3.200000*%
G04 APERTURE END LIST*
D10*
%TO.C,R14*%
X172618400Y-101168200D03*
D11*
X162458400Y-101168200D03*
%TD*%
D12*
%TO.C,J2*%
X149087600Y-64013000D03*
D13*
X149087600Y-61473000D03*
X151627600Y-64013000D03*
X151627600Y-61473000D03*
X154167600Y-64013000D03*
X154167600Y-61473000D03*
%TD*%
D14*
%TO.C,D3*%
X112593200Y-92506800D03*
D15*
X115133200Y-92506800D03*
%TD*%
D10*
%TO.C,R1*%
X143730000Y-71158000D03*
D11*
X133570000Y-71158000D03*
%TD*%
D16*
%TO.C,Y1*%
X139331200Y-94700000D03*
X139331200Y-89820000D03*
%TD*%
D10*
%TO.C,R11*%
X143700000Y-97330000D03*
D11*
X143700000Y-87170000D03*
%TD*%
D14*
%TO.C,D9*%
X182675000Y-73650000D03*
D15*
X185215000Y-73650000D03*
%TD*%
D17*
%TO.C,C5*%
X148005800Y-105345221D03*
D10*
X148005800Y-107845221D03*
%TD*%
D18*
%TO.C,D12*%
X144200000Y-112750000D03*
D19*
X154360000Y-112750000D03*
%TD*%
D10*
%TO.C,R10*%
X159512000Y-68122800D03*
D11*
X169672000Y-68122800D03*
%TD*%
D17*
%TO.C,J1*%
X152888000Y-117164500D03*
D10*
X150388000Y-117164500D03*
X150388000Y-119164500D03*
X152888000Y-119164500D03*
D20*
X157638000Y-122024500D03*
X145638000Y-122024500D03*
%TD*%
D10*
%TO.C,R15*%
X130606800Y-101168200D03*
D11*
X140766800Y-101168200D03*
%TD*%
D10*
%TO.C,R13*%
X172618400Y-98018600D03*
D11*
X162458400Y-98018600D03*
%TD*%
D10*
%TO.C,R7*%
X159512000Y-77266800D03*
D11*
X169672000Y-77266800D03*
%TD*%
D10*
%TO.C,C2*%
X134733800Y-90960000D03*
X134733800Y-88460000D03*
%TD*%
D21*
%TO.C,SW3*%
X165152000Y-104650000D03*
X171652000Y-104650000D03*
X171652000Y-109150000D03*
X165152000Y-109150000D03*
%TD*%
D10*
%TO.C,R8*%
X159512000Y-74218800D03*
D11*
X169672000Y-74218800D03*
%TD*%
D14*
%TO.C,D1*%
X131262200Y-59791600D03*
D15*
X133802200Y-59791600D03*
%TD*%
D10*
%TO.C,R2*%
X143730000Y-74206000D03*
D11*
X133570000Y-74206000D03*
%TD*%
D21*
%TO.C,SW1*%
X126100000Y-104600000D03*
X132600000Y-104600000D03*
X132600000Y-109100000D03*
X126100000Y-109100000D03*
%TD*%
D17*
%TO.C,C4*%
X155219400Y-105345221D03*
D10*
X155219400Y-107845221D03*
%TD*%
%TO.C,C6*%
X157703200Y-101168200D03*
X160203200Y-101168200D03*
%TD*%
%TO.C,R6*%
X159512000Y-80314800D03*
D11*
X169672000Y-80314800D03*
%TD*%
D14*
%TO.C,D8*%
X188209000Y-92633800D03*
D15*
X190749000Y-92633800D03*
%TD*%
D10*
%TO.C,C1*%
X134733800Y-93184400D03*
X134733800Y-95684400D03*
%TD*%
D14*
%TO.C,D2*%
X118003400Y-73736200D03*
D15*
X120543400Y-73736200D03*
%TD*%
D10*
%TO.C,C8*%
X158850000Y-87550000D03*
X158850000Y-85050000D03*
%TD*%
%TO.C,C3*%
X162250000Y-87550000D03*
X162250000Y-85050000D03*
%TD*%
D14*
%TO.C,D6*%
X169057400Y-124790200D03*
D15*
X171597400Y-124790200D03*
%TD*%
D10*
%TO.C,R4*%
X143730000Y-80302000D03*
D11*
X133570000Y-80302000D03*
%TD*%
D10*
%TO.C,C9*%
X145496600Y-101168200D03*
X142996600Y-101168200D03*
%TD*%
D14*
%TO.C,D7*%
X182824200Y-111277400D03*
D15*
X185364200Y-111277400D03*
%TD*%
D22*
%TO.C,REF\u002A\u002A*%
X151511000Y-53721000D03*
%TD*%
D18*
%TO.C,D11*%
X133544600Y-64960400D03*
D19*
X143704600Y-64960400D03*
%TD*%
D17*
%TO.C,U1*%
X147787200Y-68158200D03*
D11*
X147787200Y-70698200D03*
X147787200Y-73238200D03*
X147787200Y-75778200D03*
X147787200Y-78318200D03*
X147787200Y-80858200D03*
X147787200Y-83398200D03*
X147787200Y-85938200D03*
X147787200Y-88478200D03*
X147787200Y-91018200D03*
X147787200Y-93558200D03*
X147787200Y-96098200D03*
X147787200Y-98638200D03*
X147787200Y-101178200D03*
X155407200Y-101178200D03*
X155407200Y-98638200D03*
X155407200Y-96098200D03*
X155407200Y-93558200D03*
X155407200Y-91018200D03*
X155407200Y-88478200D03*
X155407200Y-85938200D03*
X155407200Y-83398200D03*
X155407200Y-80858200D03*
X155407200Y-78318200D03*
X155407200Y-75778200D03*
X155407200Y-73238200D03*
X155407200Y-70698200D03*
X155407200Y-68158200D03*
%TD*%
D10*
%TO.C,R12*%
X143730000Y-68110000D03*
D11*
X133570000Y-68110000D03*
%TD*%
D10*
%TO.C,R3*%
X143730000Y-77254000D03*
D11*
X133570000Y-77254000D03*
%TD*%
D10*
%TO.C,C7*%
X157703200Y-98018600D03*
X160203200Y-98018600D03*
%TD*%
D21*
%TO.C,SW2*%
X135650000Y-104600000D03*
X142150000Y-104600000D03*
X135650000Y-109100000D03*
X142150000Y-109100000D03*
%TD*%
D14*
%TO.C,D5*%
X131490800Y-124688600D03*
D15*
X134030800Y-124688600D03*
%TD*%
D10*
%TO.C,R9*%
X159512000Y-71170800D03*
D11*
X169672000Y-71170800D03*
%TD*%
D14*
%TO.C,D4*%
X117647800Y-111226600D03*
D15*
X120187800Y-111226600D03*
%TD*%
D14*
%TO.C,D10*%
X169108200Y-59944000D03*
D15*
X171648200Y-59944000D03*
%TD*%
D10*
%TO.C,R5*%
X143730000Y-83350000D03*
D11*
X133570000Y-83350000D03*
%TD*%
M02*
