<?xml version="1.0" encoding="UTF-8" standalone="no"?>
<svg
   xmlns:dc="http://purl.org/dc/elements/1.1/"
   xmlns:cc="http://creativecommons.org/ns#"
   xmlns:rdf="http://www.w3.org/1999/02/22-rdf-syntax-ns#"
   xmlns:svg="http://www.w3.org/2000/svg"
   xmlns="http://www.w3.org/2000/svg"
   xmlns:sodipodi="http://sodipodi.sourceforge.net/DTD/sodipodi-0.dtd"
   xmlns:inkscape="http://www.inkscape.org/namespaces/inkscape"
   width="210mm"
   height="297mm"
   viewBox="0 0 210 297"
   version="1.1"
   id="svg8"
   inkscape:version="1.0.2 (e86c870879, 2021-01-15)"
   sodipodi:docname="edge_cuts.svg">
  <defs
     id="defs2" />
  <sodipodi:namedview
     id="base"
     pagecolor="#ffffff"
     bordercolor="#666666"
     borderopacity="1.0"
     inkscape:pageopacity="0.0"
     inkscape:pageshadow="2"
     inkscape:zoom="1.979899"
     inkscape:cx="366.24808"
     inkscape:cy="284.53069"
     inkscape:document-units="mm"
     inkscape:current-layer="layer1"
     showgrid="false"
     inkscape:window-width="1916"
     inkscape:window-height="1040"
     inkscape:window-x="1920"
     inkscape:window-y="18"
     inkscape:window-maximized="1"
     inkscape:document-rotation="0" />
  <metadata
     id="metadata5">
    <rdf:RDF>
      <cc:Work
         rdf:about="">
        <dc:format>image/svg+xml</dc:format>
        <dc:type
           rdf:resource="http://purl.org/dc/dcmitype/StillImage" />
        <dc:title />
      </cc:Work>
    </rdf:RDF>
  </metadata>
  <g
     inkscape:groupmode="layer"
     id="layer1"
     inkscape:label="Edge.Cuts"
     sodipodi:insensitive="true">
    <path
       id="path960"
       style="display:inline;fill:none;fill-opacity:1;fill-rule:nonzero;stroke:#000000;stroke-width:0.0962057;stroke-linecap:butt;stroke-linejoin:miter;stroke-miterlimit:10;stroke-dasharray:none;stroke-opacity:1"
       d="m 96.468621,32.834156 c -1.052557,0.01606 -2.108671,0.0621 -3.155362,0.146246 -0.308287,0.05145 -0.500782,0.349761 -0.512115,0.648023 l -1.371491,8.144721 c -2.208001,0.368827 -4.379182,0.952244 -6.477124,1.732711 -1.88762,-2.279575 -3.774784,-4.559532 -5.662705,-6.838859 -2.432336,1.086699 -4.730922,2.451473 -6.918958,3.967199 -0.170111,0.08205 0.04738,0.287803 0.05788,0.427363 0.989941,2.647333 1.97939,5.294304 2.969329,7.941635 -1.725017,1.4326 -3.345066,3.001262 -4.741831,4.758883 -2.783144,-1.034634 -5.566002,-2.070123 -8.349361,-3.104202 -1.453943,2.102268 -2.791383,4.293473 -3.854545,6.621301 -0.02127,0.136869 -0.243795,0.318981 -0.112654,0.421679 2.261856,1.868139 4.524047,3.73543 6.786149,5.603275 -0.780057,2.096635 -1.361011,4.266948 -1.73736,6.471957 -2.922992,0.490344 -5.845926,0.981215 -8.768974,1.471228 -0.219625,2.651168 -0.223811,5.319517 -0.0072,7.971089 -0.01519,0.189458 0.271933,0.104558 0.398425,0.165365 2.793389,0.469815 5.586973,0.939413 8.380367,1.409216 0.370843,2.204984 0.95321,4.373551 1.736329,6.467821 -2.282984,1.885392 -4.565206,3.77171 -6.848676,5.656503 1.076758,2.366997 2.379921,4.628068 3.871079,6.757728 0.08513,0.15961 0.178345,0.295331 0.357602,0.158129 2.715959,-1.008563 5.431886,-2.017549 8.147823,-3.026172 1.403657,1.748896 3.013943,3.324885 4.738211,4.755785 -1.023628,2.77462 -2.071304,5.54213 -3.103687,8.31422 2.174772,1.50703 4.453271,2.87392 6.868316,3.96151 0.166635,0.15323 0.239901,-0.10954 0.350883,-0.2036 1.814444,-2.19147 3.629149,-4.38331 5.443595,-6.5748 2.095485,0.78503 4.264959,1.37459 6.474024,1.73478 0.499988,2.91847 0.984464,5.84051 1.479497,8.76019 2.584736,0.22587 5.187825,0.24059 7.773683,0.0233 0.16366,-0.0127 0.3749,0.0275 0.339,-0.20464 0.48189,-2.85899 0.96368,-5.71823 1.44539,-8.57725 2.21008,-0.35886 4.38013,-0.94994 6.47557,-1.73736 1.88832,2.27974 3.77605,4.55998 5.66477,6.83937 2.40337,-1.08561 4.69388,-2.41175 6.85436,-3.92276 0.22641,-0.0641 0.0827,-0.24507 0.0341,-0.39636 -0.99867,-2.67039 -1.99695,-5.34102 -2.99568,-8.01139 1.73485,-1.42889 3.32829,-3.028106 4.76353,-4.757336 2.7792,1.021353 5.55154,2.066227 8.32817,3.096453 1.48724,-2.131837 2.82949,-4.370128 3.90726,-6.73809 0.0952,-0.153464 0.16169,-0.300485 -0.0455,-0.386022 -2.22862,-1.84077 -4.4569,-3.682259 -6.68538,-5.523177 0.77391,-2.096506 1.3857,-4.257712 1.73633,-6.46679 2.92486,-0.491834 5.84984,-0.983279 8.77466,-1.475361 0.1064,-2.771871 0.10479,-5.54845 -0.0129,-8.319905 -2.92072,-0.403646 -5.8582,-0.696717 -8.76122,-1.221116 -0.35231,-2.210287 -0.96953,-4.371409 -1.73581,-6.471957 2.28216,-1.8845 4.56459,-3.768733 6.8466,-5.653399 -1.04832,-2.350839 -2.36526,-4.57222 -3.82147,-6.691583 -0.10475,-0.09893 -0.14888,-0.385532 -0.32711,-0.25528 -2.73316,1.01936 -5.46685,2.03836 -8.20001,3.057694 -1.43261,-1.734457 -3.03212,-3.330871 -4.76819,-4.761468 1.03597,-2.770367 2.07172,-5.540804 3.10782,-8.311118 -2.17355,-1.525931 -4.47322,-2.875344 -6.89312,-3.97237 -0.16153,-0.131926 -0.22975,0.154075 -0.34364,0.23513 -1.80912,2.184377 -3.6185,4.368676 -5.42758,6.553087 -2.09845,-0.778124 -4.26748,-1.367222 -6.47609,-1.732712 -0.49201,-2.92091 -0.98329,-5.841947 -1.47588,-8.762772 -1.503327,-0.123841 -3.010346,-0.19281 -4.519103,-0.175699 z"
       sodipodi:insensitive="true" />
  </g>
</svg>
