<?xml version="1.0" encoding="UTF-8" standalone="no"?>
<!-- Created with Inkscape (http://www.inkscape.org/) -->

<svg
   xmlns:dc="http://purl.org/dc/elements/1.1/"
   xmlns:cc="http://creativecommons.org/ns#"
   xmlns:rdf="http://www.w3.org/1999/02/22-rdf-syntax-ns#"
   xmlns:svg="http://www.w3.org/2000/svg"
   xmlns="http://www.w3.org/2000/svg"
   xmlns:sodipodi="http://sodipodi.sourceforge.net/DTD/sodipodi-0.dtd"
   xmlns:inkscape="http://www.inkscape.org/namespaces/inkscape"
   width="210mm"
   height="297mm"
   viewBox="0 0 210 297"
   version="1.1"
   id="svg8"
   inkscape:version="0.92.5 (2060ec1f9f, 2020-04-08)"
   sodipodi:docname="edge_cuts.svg">
  <defs
     id="defs2" />
  <sodipodi:namedview
     id="base"
     pagecolor="#ffffff"
     bordercolor="#666666"
     borderopacity="1.0"
     inkscape:pageopacity="0.0"
     inkscape:pageshadow="2"
     inkscape:zoom="1.979899"
     inkscape:cx="366.24808"
     inkscape:cy="728.99781"
     inkscape:document-units="mm"
     inkscape:current-layer="layer1-6"
     showgrid="false"
     inkscape:window-width="1863"
     inkscape:window-height="953"
     inkscape:window-x="56"
     inkscape:window-y="27"
     inkscape:window-maximized="1" />
  <metadata
     id="metadata5">
    <rdf:RDF>
      <cc:Work
         rdf:about="">
        <dc:format>image/svg+xml</dc:format>
        <dc:type
           rdf:resource="http://purl.org/dc/dcmitype/StillImage" />
        <dc:title></dc:title>
      </cc:Work>
    </rdf:RDF>
  </metadata>
  <g
     inkscape:label="Layer 1"
     inkscape:groupmode="layer"
     id="layer1">
    <g
       id="layer1-3"
       transform="matrix(0.26458333,0,0,0.26458333,-29.829446,154.29408)">
      <path
         style="fill:none;fill-opacity:1;fill-rule:nonzero;stroke:#000000;stroke-width:0.36361203;stroke-linecap:butt;stroke-linejoin:miter;stroke-miterlimit:10;stroke-dasharray:none;stroke-opacity:1"
         id="path6152"
         d="m 603.07258,-208.48618 c -6.78649,-1.11387 -20.27251,-2.31906 -33.09121,-4.65049 -1.32133,-8.35047 -3.64929,-16.52685 -6.56206,-24.45236 8.62298,-7.11999 17.24568,-14.24003 25.86865,-21.36 -4.11022,-9.32997 -9.40424,-18.08611 -15.21566,-26.43881 -10.48424,3.91037 -20.96836,7.82068 -31.45259,11.731 -5.39856,-6.56928 -11.44302,-12.60525 -18.01478,-17.99062 3.91441,-10.46929 7.82871,-20.9385 11.74321,-31.40777 -8.31977,-5.87696 -17.16596,-11.0451 -26.46414,-15.20438 -7.13251,8.61274 -14.26524,17.22553 -21.39801,25.83826 -7.92612,-2.96009 -16.129,-5.17333 -24.4762,-6.55127 -1.85743,-11.03423 -3.71504,-22.06839 -5.57247,-33.10266 -10.16232,-0.92419 -20.39269,-0.92248 -30.55486,0 -1.85855,11.03427 -3.717,22.06843 -5.57543,33.10266 -8.34476,1.39257 -16.54906,3.58933 -24.47626,6.55127 -7.13168,-8.61273 -14.26342,-17.22552 -21.39512,-25.83826 -9.31795,4.12891 -18.11247,9.36992 -26.46408,15.20438 3.91438,10.46927 7.82889,20.93848 11.74347,31.40777 -6.51402,5.40853 -12.65623,11.3335 -17.91431,17.99062 -10.51478,-3.91032 -21.02976,-7.82063 -31.54471,-11.731 -5.8343,8.34062 -11.09655,17.11701 -15.22715,26.43881 8.62396,7.11997 17.24767,14.24001 25.87152,21.36 -2.96723,7.91498 -5.16205,16.11368 -6.56494,24.45236 -11.04613,1.85365 -22.09229,3.70728 -33.1385,5.56085 -0.86873,10.14543 -0.86967,20.36165 0,30.50702 11.04621,1.85739 22.09237,3.71497 33.1385,5.57241 1.39919,8.33476 3.58396,16.53494 6.56494,24.44085 -8.62385,7.12385 -17.24756,14.24767 -25.87152,21.37163 4.16351,9.29601 9.34865,18.12187 15.22715,26.424249 10.51495,-3.905589 21.02993,-7.810979 31.54471,-11.716609 5.27782,6.63841 11.39289,12.587999 17.91431,17.987759 -3.91458,10.46635 -7.82909,20.93265 -11.74347,31.39913 8.35297,5.83253 17.1422,11.0827 26.46408,15.20433 7.1317,-8.61364 14.26344,-17.22734 21.39512,-25.84097 7.91616,2.9892 16.12739,5.209 24.47626,6.56561 1.85843,11.03023 3.71688,22.06065 5.57543,33.09102 10.16291,0.93104 20.39198,0.93029 30.55486,0 1.85743,-11.03037 3.71504,-22.06079 5.57247,-33.09102 8.34977,-1.3413 16.56109,-3.57831 24.4762,-6.56561 7.13277,8.61363 14.2655,17.22733 21.39801,25.84097 9.3026,-4.15159 18.14245,-9.33009 26.46414,-15.20433 -3.9145,-10.46648 -7.8288,-20.93278 -11.74321,-31.39913 6.5787,-5.37693 12.5971,-11.437139 18.01478,-17.987759 10.48423,3.90563 20.96835,7.81102 31.45259,11.716609 5.85637,-8.314189 11.07219,-17.120389 15.21566,-26.424249 -8.62297,-7.12396 -17.24567,-14.24778 -25.86865,-21.37163 2.92764,-7.91637 5.24444,-16.09578 6.56206,-24.44085 11.04708,-1.85744 22.09431,-3.71502 33.14135,-5.57241 0.49589,-9.09252 0.35997,-25.4165 -0.0508,-31.41738 z"
         inkscape:connector-curvature="0"
         sodipodi:nodetypes="ccccccccccccccccccccccccccccccccccccccccccccccccc" />
      <g
         id="layer1-6"
         transform="matrix(0.40157481,0,0,0.40157481,240.04312,175.61307)">
        <path
           style="fill:#000000;fill-opacity:1;fill-rule:nonzero;stroke-width:0;stroke-linecap:butt;stroke-linejoin:miter;stroke-miterlimit:10"
           id="path6152-7"
           d="m 627.93569,189.19903 c -15.01966,24.99396 -30.03934,49.98777 -45.05912,74.98175 -9.28169,-15.4045 -18.56333,-30.80893 -27.84504,-46.21342 -35.56665,7.81998 -72.7122,7.83174 -108.27792,0 -9.29333,15.40449 -18.58663,30.80892 -27.88006,46.21342 C 402.98937,239.02936 389.04698,211.98452 371.96497,188.00114 294.79325,143.1434 246.93501,53.891081 251.68504,-35.399002 253.72823,-122.62625 306.34772,-205.4468 383.4999,-245.31993 c 0,-18.45957 0,-36.91922 0,-55.37879 78.25018,0 156.50026,0 234.75026,0 0,18.45957 0,36.91922 0,55.37879 77.87205,40.04654 130.14472,123.8841 132.1098,211.663684 C 753.45357,76.112473 699.74649,145.48135 627.93569,189.19903 Z M 890.16412,-64.868282 c -16.52071,-2.711588 -49.35113,-5.645422 -80.55607,-11.320927 -3.21678,-20.328023 -8.88351,-40.232141 -15.97444,-59.525741 20.99117,-17.33273 41.98239,-34.66535 62.97355,-51.998 -10.00563,-22.71229 -22.89324,-44.02795 -37.04044,-64.36153 -25.52232,9.51912 -51.04468,19.03835 -76.56697,28.5575 -13.14183,-15.99202 -27.8564,-30.68573 -43.85453,-43.79562 9.52919,-25.48588 19.05828,-50.97187 28.58743,-76.45774 -20.2535,-14.30672 -41.78815,-26.88769 -64.42329,-37.01299 -17.36347,20.9665 -34.72703,41.93301 -52.09049,62.89953 -19.29524,-7.20568 -39.26397,-12.59369 -59.58398,-15.94805 -4.52177,-26.86116 -9.04347,-53.72237 -13.56532,-80.5836 -24.73866,-2.24989 -49.6432,-2.24562 -74.38199,0 -4.52414,26.86123 -9.04828,53.72244 -13.57239,80.5836 -20.31408,3.39008 -40.28654,8.73775 -59.58396,15.94805 -17.3611,-20.96652 -34.72221,-41.93303 -52.08348,-62.89953 -22.68315,10.05133 -44.09209,22.80971 -64.42322,37.01299 9.52918,25.48587 19.05829,50.97186 28.58747,76.45774 -15.85701,13.16614 -30.80942,27.58976 -43.6095,43.79562 -25.59702,-9.51915 -51.19403,-19.03838 -76.79105,-28.5575 -14.20299,20.3041 -27.0132,41.669 -37.06842,64.36153 20.99362,17.33265 41.98696,34.66527 62.98058,51.998 -7.22332,19.26786 -12.56636,39.226406 -15.9816,59.525741 -26.89028,4.512402 -53.78049,9.024803 -80.67076,13.537201 -2.1151,24.697524 -2.11725,49.56746 0,74.264843 26.89027,4.521749 53.78048,9.043568 80.67076,13.565316 3.40619,20.289779 8.7248,40.251951 15.9816,59.497623 -20.99362,17.342056 -41.98696,34.684086 -62.98058,52.026196 10.13539,22.62987 22.75794,44.1152 37.06842,64.32634 25.59702,-9.50755 51.19403,-19.01484 76.79105,-28.52239 12.84815,16.16009 27.7344,30.64377 43.6095,43.78851 -9.52918,25.47904 -19.05829,50.95789 -28.58747,76.43674 20.33417,14.19842 41.7303,26.97933 64.42322,37.013 17.36127,-20.96888 34.72238,-41.93781 52.08348,-62.90653 19.27065,7.27693 39.25996,12.68064 59.58396,15.98311 4.52411,26.85184 9.04825,53.70374 13.57239,80.55558 24.74044,2.26612 49.64146,2.26446 74.38199,0 4.52185,-26.85184 9.04355,-53.70374 13.56532,-80.55558 20.32605,-3.26512 40.31576,-8.71073 59.58398,-15.98311 17.36346,20.96872 34.72702,41.93765 52.09049,62.90653 22.64577,-10.10671 44.16509,-22.713 64.42329,-37.013 -9.52915,-25.47885 -19.05824,-50.9577 -28.58743,-76.43674 16.0152,-13.08942 30.66616,-27.84204 43.85453,-43.78851 25.52229,9.50755 51.04465,19.01484 76.56697,28.52239 14.25665,-20.23984 26.9539,-41.67729 37.04044,-64.32634 -20.99116,-17.34211 -41.98238,-34.68414 -62.97355,-52.026196 7.1267,-19.271185 12.7669,-39.182963 15.97444,-59.497623 26.89264,-4.521748 53.78529,-9.043567 80.67793,-13.565316 1.20708,-22.134452 0.87621,-61.872677 -0.12186,-76.481117 z"
           inkscape:connector-curvature="0" />
        <path
           style="fill:#000500;fill-opacity:1;fill-rule:evenodd;stroke-width:0;stroke-linecap:butt;stroke-linejoin:miter;stroke-miterlimit:10"
           id="path6156"
           d="M 607.11501,-289.57935 H 394.90835 v 55.87784 h 52.06237 v -11.36534 h 27.87313 v 104.27013 h -11.15627 v 44.758605 h 74.38199 V -140.79672 H 526.9343 v -104.02419 h 28.09723 v 11.1194 h 52.08348 v -55.87784"
           inkscape:connector-curvature="0" />
        <path
           style="fill:#000500;fill-opacity:1;fill-rule:evenodd;stroke-width:0;stroke-linecap:butt;stroke-linejoin:miter;stroke-miterlimit:10"
           id="path6160"
           d="m 385.44692,-203.94219 v 44.75148 h 11.38037 V 19.35842 l -11.38037,-0.253034 v 44.75852 h 74.62704 v -44.75852 h -11.16327 v -44.505484 h 104.1739 v 44.505484 h -11.13523 v 44.75852 H 616.3103 V 19.105386 H 605.17508 V -159.40853 l 11.13522,0.21782 v -44.75148 h -74.36094 v 44.75148 h 11.13523 v 89.039123 h -104.1739 v -89.039123 h 11.16327 v -44.75148 h -74.62704"
           inkscape:connector-curvature="0" />
        <path
           style="fill:#000500;fill-opacity:1;fill-rule:evenodd;stroke-width:0;stroke-linecap:butt;stroke-linejoin:miter;stroke-miterlimit:10"
           id="path6164"
           d="m 501.00117,105.9796 81.8754,136.18036 107.31838,-178.520971 h 26.64758 V 19.105386 h -89.15186 v 44.533603 h 10.4208 L 582.87657,155.56687 500.756,19.105386 418.87355,155.56687 363.89078,63.638989 h 10.4208 V 19.105386 h -89.4039 v 44.533603 h 26.89264 L 419.1187,242.15996 501.00117,105.9796"
           inkscape:connector-curvature="0" />
      </g>
    </g>
  </g>
</svg>
