<?xml version="1.0" encoding="UTF-8" standalone="no"?>
<svg
   xmlns:dc="http://purl.org/dc/elements/1.1/"
   xmlns:cc="http://creativecommons.org/ns#"
   xmlns:rdf="http://www.w3.org/1999/02/22-rdf-syntax-ns#"
   xmlns:svg="http://www.w3.org/2000/svg"
   xmlns="http://www.w3.org/2000/svg"
   xmlns:sodipodi="http://sodipodi.sourceforge.net/DTD/sodipodi-0.dtd"
   xmlns:inkscape="http://www.inkscape.org/namespaces/inkscape"
   width="210mm"
   height="297mm"
   viewBox="0 0 210 297"
   version="1.1"
   id="svg8"
   inkscape:version="1.0.2 (e86c870879, 2021-01-15)"
   sodipodi:docname="Silkscreen.svg">
  <defs
     id="defs2">
    <filter
       inkscape:collect="always"
       style="color-interpolation-filters:sRGB"
       id="filter2315"
       x="-0.0011995448"
       width="1.0023991"
       y="-0.0012004555"
       height="1.0024009">
      <feGaussianBlur
         inkscape:collect="always"
         stdDeviation="0.041528512"
         id="feGaussianBlur2317" />
    </filter>
  </defs>
  <sodipodi:namedview
     id="base"
     pagecolor="#ffffff"
     bordercolor="#666666"
     borderopacity="1.0"
     inkscape:pageopacity="0.0"
     inkscape:pageshadow="2"
     inkscape:zoom="3.959798"
     inkscape:cx="292.33097"
     inkscape:cy="190.16887"
     inkscape:document-units="mm"
     inkscape:current-layer="layer1"
     showgrid="false"
     inkscape:window-width="1916"
     inkscape:window-height="1040"
     inkscape:window-x="1920"
     inkscape:window-y="18"
     inkscape:window-maximized="0"
     inkscape:document-rotation="0" />
  <metadata
     id="metadata5">
    <rdf:RDF>
      <cc:Work
         rdf:about="">
        <dc:format>image/svg+xml</dc:format>
        <dc:type
           rdf:resource="http://purl.org/dc/dcmitype/StillImage" />
        <dc:title />
      </cc:Work>
    </rdf:RDF>
  </metadata>
  <g
     inkscape:label="Silkscreen"
     inkscape:groupmode="layer"
     id="layer1"
     sodipodi:insensitive="true">
    <path
       id="path953"
       style="mix-blend-mode:normal;fill:#000000;fill-opacity:1;fill-rule:evenodd;stroke:#000000;stroke-width:0;stroke-linecap:butt;stroke-linejoin:miter;stroke-miterlimit:10;stroke-dasharray:none;stroke-opacity:1"
       d="m 63.203158,25.79694 c -0.928121,0.01283 -1.837486,0.05001 -2.771923,0.117822 a 0.34009737,0.34009737 0 0 0 -0.09405,0.02066 c 0.09091,-0.03396 0.0073,-0.01339 -0.112138,-0.01138 -0.05973,0.0011 -0.140547,-0.0011 -0.251664,0.05685 -0.111119,0.05785 -0.217929,0.219192 -0.229444,0.348298 l 0.0031,-0.02635 c -0.47235,2.804271 -0.943835,5.608839 -1.416452,8.412922 -0.733343,0.125015 -1.446086,0.25323 -2.182294,0.42323 a 0.34009737,0.34009737 0 0 0 -0.0016,5.29e-4 c -0.419772,0.0992 -0.898361,0.213963 -1.34307,0.337447 -1.075306,0.28979 -2.12716,0.648774 -3.166731,1.034563 -1.831592,-2.212094 -3.663159,-4.424203 -5.494756,-6.636287 a 0.34009737,0.34009737 0 0 0 -0.403077,-0.0925 c -2.01422,0.919663 -3.952938,2.049899 -5.769157,3.268017 a 0.34009737,0.34009737 0 0 0 -0.0016,0.0016 c -0.162115,0.110241 -0.32758,0.220776 -0.493508,0.33538 a 0.34009737,0.34009737 0 0 0 -0.125058,0.398426 c 1.003959,2.684735 2.007674,5.370073 3.011704,8.054805 -0.618813,0.517054 -1.234493,1.038461 -1.818494,1.586982 -1.110541,1.02971 -2.137291,2.148604 -3.078882,3.335715 -2.698631,-1.002839 -5.397008,-2.006793 -8.095631,-3.010154 a 0.34009737,0.34009737 0 0 0 -0.398426,0.126093 c -0.683572,0.992489 -1.333836,2.008611 -1.941999,3.050976 a 0.34009737,0.34009737 0 0 0 -5.29e-4,0.0011 c -0.207669,0.358214 -0.440026,0.769773 -0.647507,1.157036 -0.36182,0.671015 -0.702069,1.353571 -1.020093,2.046385 a 0.34009737,0.34009737 0 0 0 0.0925,0.404112 c 2.215033,1.82877 4.42985,3.65783 6.645074,5.486487 -0.813779,2.16463 -1.414502,4.405823 -1.795241,6.686412 -2.834491,0.475496 -5.668922,0.95119 -8.503356,1.426787 a 0.34009737,0.34009737 0 0 0 -0.28267,0.309025 c -0.0538,0.691957 -0.09247,1.413823 -0.114721,2.096511 -0.03908,1.229823 -0.02978,2.466898 0.02635,3.680396 0.02201,0.492255 0.05206,0.95454 0.08837,1.439188 a 0.34009737,0.34009737 0 0 0 0.282671,0.31006 c 2.8327,0.476295 5.665395,0.952714 8.498189,1.428853 0.124655,0.727771 0.262429,1.47796 0.422714,2.174029 0.351692,1.535509 0.821198,3.040739 1.374592,4.512902 -2.213859,1.828311 -4.427294,3.657018 -6.640938,5.485453 a 0.34009737,0.34009737 0 0 0 -0.0925,0.404109 c 0.713261,1.548982 1.552421,3.073423 2.445329,4.496884 a 0.34009737,0.34009737 0 0 0 0,5.3e-4 c 0.374446,0.594174 0.7619,1.180827 1.163236,1.758031 a 0.34009737,0.34009737 0 0 0 0.39739,0.12454 c 2.700875,-1.002969 5.401466,-2.006621 8.102349,-3.009117 1.44848,1.823231 3.113646,3.457101 4.900993,4.930965 -0.02617,0.04056 -0.05461,0.06729 -0.06976,0.156578 l 0.01241,-0.03307 -0.02119,0.09715 c 0.0019,-0.0265 0.0055,-0.04472 0.0088,-0.06408 l -2.950726,7.88893 a 0.34009737,0.34009737 0 0 0 0.125574,0.39946 c 1.28475,0.88218 2.669378,1.75047 4.07262,2.50991 0.717306,0.38882 1.448141,0.75469 2.191081,1.094 a 0.34009737,0.34009737 0 0 0 0.403076,-0.0925 c 1.831555,-2.21197 3.663157,-4.42388 5.494756,-6.635771 0.988914,0.3696 1.996257,0.719311 3.002399,0.996841 0.624708,0.17433 1.258448,0.3301 1.871721,0.46354 0.585483,0.12928 1.220792,0.24035 1.829863,0.3421 -0.0013,0.0472 -0.01159,0.0786 0.01707,0.15864 -0.0019,-0.0103 -0.0034,-0.0207 -0.0052,-0.031 l 0.02687,0.0863 c -0.01032,-0.0223 -0.01564,-0.0383 -0.0217,-0.0553 0.46746,2.77523 0.935037,5.55037 1.402498,8.32559 a 0.34009737,0.34009737 0 0 0 0.307475,0.28267 c 0.89219,0.0734 1.785897,0.11944 2.664954,0.13849 1.008801,0.0212 2.023997,0.008 3.015319,-0.0382 a 0.34009737,0.34009737 0 0 0 5.29e-4,0 c 0.258453,-0.0126 0.517403,-0.0269 0.776182,-0.0434 0.258775,-0.0165 0.517379,-0.0352 0.776179,-0.0568 a 0.34009737,0.34009737 0 0 0 0.02532,-0.003 0.34009737,0.34009737 0 0 0 0.281639,-0.27957 c 0.476879,-2.83135 0.954111,-5.66266 1.430919,-8.49406 1.125337,-0.18508 2.262616,-0.40686 3.348633,-0.70176 l 10e-4,-5.3e-4 c 0.34168,-0.0912 0.73004,-0.20175 1.07436,-0.30644 0.76978,-0.23183 1.5225,-0.503421 2.27014,-0.781871 1.83094,2.210851 3.66177,4.421811 5.49269,6.632681 a 0.34009737,0.34009737 0 0 0 0.40359,0.092 c 1.39956,-0.64057 2.78191,-1.38931 4.07572,-2.17558 a 0.34009737,0.34009737 0 0 0 5.3e-4,-5.3e-4 c 0.74274,-0.45432 1.47329,-0.92885 2.18902,-1.42575 a 0.34009737,0.34009737 0 0 0 0.12454,-0.39894 c -1.00452,-2.686011 -2.0093,-5.371901 -3.01377,-8.057915 1.80429,-1.474605 3.45681,-3.128502 4.93665,-4.925282 0.0407,0.02619 0.0674,0.05542 0.15761,0.07028 l -0.0341,-0.01291 0.0977,0.02066 c -0.0262,-0.0016 -0.0443,-0.0046 -0.0636,-0.0078 l 7.90339,2.944005 a 0.34009737,0.34009737 0 0 0 0.39843,-0.125055 c 0.58716,-0.847553 1.16515,-1.741413 1.682579,-2.610694 0.70251,-1.179295 1.34902,-2.39386 1.9234,-3.643188 a 0.34009737,0.34009737 0 0 0 -0.0925,-0.40417 c -2.213809,-1.828823 -4.427569,-3.657708 -6.641459,-5.486487 0.38095,-1.039593 0.74589,-2.096148 1.04283,-3.181199 l -5.3e-4,5.29e-4 c 0.26705,-0.968862 0.50575,-2.002104 0.678,-3.017903 a 0.34009737,0.34009737 0 0 0 0,-0.0011 c 0.0271,-0.162515 0.0541,-0.324858 0.0811,-0.487307 2.82705,-0.475239 5.654089,-0.950484 8.481129,-1.425752 a 0.34009737,0.34009737 0 0 0 0.28371,-0.322463 c 0.0796,-2.067587 0.0752,-4.164793 0.0315,-6.241479 a 0.34009737,0.34009737 0 0 0 0,-0.0041 c -0.0122,-0.364435 -0.022,-0.791647 -0.0419,-1.188043 a 0.34009737,0.34009737 0 0 0 -0.002,-0.02479 0.34009737,0.34009737 0 0 0 -0.01,-0.04961 0.34009737,0.34009737 0 0 0 -0.28164,-0.245462 c -2.83527,-0.386429 -5.672409,-0.673806 -8.462009,-1.188558 a 0.34009737,0.34009737 0 0 0 -0.003,-0.01963 c -0.35434,-2.287027 -1.00407,-4.510091 -1.79834,-6.668326 2.21412,-1.828353 4.42833,-3.656602 6.642489,-5.484937 a 0.34009737,0.34009737 0 0 0 0.0931,-0.40309 C 101.00581,47.93608 99.758441,45.86294 98.400351,43.880782 a 0.34009737,0.34009737 0 0 0 -0.39946,-0.126606 c -2.69029,1.003348 -5.38054,2.00679 -8.07083,3.010151 -1.47433,-1.797452 -3.12535,-3.445973 -4.92528,-4.91753 1.00449,-2.687388 2.00952,-5.374655 3.01429,-8.062039 a 0.34009737,0.34009737 0 0 0 -0.12454,-0.398425 c -1.97232,-1.367483 -4.06603,-2.589512 -6.26525,-3.601847 a 0.34009737,0.34009737 0 0 0 -0.40411,0.09198 c -1.83159,2.211745 -3.6632,4.42346 -5.49476,6.635255 -0.27102,-0.100639 -0.54258,-0.198977 -0.81545,-0.295074 -0.81861,-0.288287 -1.64654,-0.553683 -2.48719,-0.778761 a 0.34009737,0.34009737 0 0 0 -0.002,-5.29e-4 c -0.45358,-0.119042 -0.962503,-0.247274 -1.446939,-0.353465 l -0.0021,-5.29e-4 c -0.645734,-0.145616 -1.29367,-0.258546 -1.939936,-0.367935 -0.476837,-2.83024 -0.953227,-5.660615 -1.429885,-8.490955 a 0.34009737,0.34009737 0 0 0 -0.03101,-0.0956 0.34009737,0.34009737 0 0 0 -0.01188,-0.02223 0.34009737,0.34009737 0 0 0 -0.264583,-0.164849 c -0.937996,-0.07656 -1.870149,-0.122171 -2.797763,-0.139009 h -0.0011 c -0.433737,-0.0093 -0.866058,-0.009 -1.296561,-0.0057 a 0.34009737,0.34009737 0 0 0 -0.0021,0 z"
       sodipodi:insensitive="true" />
    <path
       id="path976"
       style="mix-blend-mode:normal;fill:#ffffff;fill-opacity:1;fill-rule:evenodd;stroke:#000000;stroke-width:0;stroke-linecap:butt;stroke-linejoin:miter;stroke-miterlimit:10;stroke-dasharray:none;stroke-opacity:1;filter:url(#filter2315)"
       sodipodi:type="inkscape:offset"
       inkscape:radius="-0.068396203"
       inkscape:original="M 91.330078 30.517578 C 90.431779 30.530175 89.553748 30.567978 88.650391 30.632812 C 88.650391 30.632812 88.648438 30.632812 88.648438 30.632812 A 0.74978231 0.74978231 0 0 1 88.574219 30.646484 C 88.115844 33.368063 87.657942 36.090852 87.199219 38.8125 A 0.74978231 0.74978231 0 0 1 86.585938 39.425781 C 85.864534 39.548761 85.172387 39.674312 84.46875 39.835938 A 0.74978231 0.74978231 0 0 1 84.445312 39.841797 C 84.02604 39.940879 83.558133 40.051821 83.132812 40.169922 A 0.74978231 0.74978231 0 0 1 83.126953 40.171875 C 82.083351 40.453121 81.052589 40.804349 80.025391 41.185547 A 0.74978231 0.74978231 0 0 1 79.185547 40.960938 C 77.426704 38.836706 75.668797 36.711955 73.910156 34.587891 C 72.041331 35.462531 70.221589 36.499848 68.517578 37.642578 C 68.517578 37.642578 68.515625 37.644531 68.515625 37.644531 C 68.439976 37.695967 68.365927 37.74618 68.291016 37.796875 C 69.257536 40.38157 70.224849 42.96625 71.191406 45.550781 A 0.74978231 0.74978231 0 0 1 70.96875 46.388672 C 70.352141 46.903884 69.748443 47.41478 69.183594 47.945312 A 0.74978231 0.74978231 0 0 1 69.179688 47.947266 C 68.098923 48.949366 67.099062 50.04207 66.179688 51.201172 A 0.74978231 0.74978231 0 0 1 65.330078 51.4375 C 62.734825 50.473077 60.140005 49.507852 57.544922 48.542969 C 56.936368 49.438206 56.349601 50.345339 55.804688 51.279297 A 0.74978231 0.74978231 0 0 1 55.791016 51.298828 C 55.590236 51.645624 55.367066 52.042449 55.167969 52.414062 A 0.74978231 0.74978231 0 0 1 55.167969 52.416016 C 54.862807 52.981955 54.581814 53.559175 54.308594 54.140625 C 56.439495 55.899988 58.570204 57.658865 60.701172 59.417969 A 0.74978231 0.74978231 0 0 1 60.925781 60.259766 C 60.129271 62.378462 59.542724 64.573593 59.169922 66.806641 A 0.74978231 0.74978231 0 0 1 58.554688 67.423828 C 55.828136 67.881217 53.101239 68.337552 50.375 68.794922 C 50.33404 69.376497 50.297824 69.971384 50.279297 70.539062 C 50.240831 71.74956 50.247531 72.966714 50.302734 74.160156 A 0.74978231 0.74978231 0 0 1 50.302734 74.162109 C 50.319416 74.5352 50.34705 74.893915 50.373047 75.259766 C 53.098435 75.718086 55.823674 76.176719 58.548828 76.634766 A 0.74978231 0.74978231 0 0 1 59.162109 77.248047 C 59.28559 77.968961 59.423014 78.707259 59.578125 79.380859 C 59.921156 80.878556 60.380426 82.351294 60.923828 83.796875 A 0.74978231 0.74978231 0 0 1 60.699219 84.638672 C 58.572186 86.395278 56.445479 88.153075 54.318359 89.910156 C 54.987474 91.329507 55.745418 92.736907 56.568359 94.048828 C 56.880341 94.543848 57.206735 95.030964 57.537109 95.513672 C 60.136605 94.548417 62.736696 93.58391 65.335938 92.619141 A 0.74978231 0.74978231 0 0 1 66.185547 92.855469 C 67.595604 94.630336 69.220649 96.227495 70.974609 97.673828 A 0.74978231 0.74978231 0 0 1 71.158203 98.609375 L 71.150391 98.640625 A 0.74978231 0.74978231 0 0 1 71.056641 98.867188 L 68.296875 106.24609 C 69.490208 107.05512 70.751267 107.85309 72.033203 108.54688 A 0.74978231 0.74978231 0 0 1 72.033203 108.54883 C 72.644538 108.88021 73.268627 109.18584 73.898438 109.48047 C 75.660852 107.35189 77.422837 105.22245 79.185547 103.09375 A 0.74978231 0.74978231 0 0 1 80.025391 102.86914 C 81.003446 103.23468 81.992977 103.57904 82.966797 103.84766 A 0.74978231 0.74978231 0 0 1 82.96875 103.84766 C 83.578047 104.01769 84.198757 104.17021 84.798828 104.30078 A 0.74978231 0.74978231 0 0 1 84.800781 104.30078 C 85.362769 104.42487 85.986349 104.53362 86.591797 104.63477 A 0.74978231 0.74978231 0 0 1 87.216797 105.3418 L 87.216797 105.3457 L 87.222656 105.36328 A 0.74978231 0.74978231 0 0 1 87.257812 105.5918 C 87.696958 108.19888 88.135062 110.80501 88.574219 113.41211 C 89.345068 113.4698 90.118076 113.5148 90.876953 113.53125 C 91.868247 113.55208 92.865194 113.53956 93.839844 113.49414 L 93.875 113.49219 C 94.119089 113.48017 94.363317 113.46661 94.605469 113.45117 C 94.754126 113.44169 94.90102 113.42897 95.048828 113.41797 C 95.507865 110.69218 95.966707 107.96632 96.425781 105.24023 A 0.74978231 0.74978231 0 0 1 97.044922 104.625 C 98.155757 104.44231 99.268704 104.22643 100.31836 103.94141 A 0.74978231 0.74978231 0 0 1 100.32227 103.93945 C 100.65454 103.85076 101.03604 103.74251 101.37109 103.64062 A 0.74978231 0.74978231 0 0 1 101.37305 103.63867 C 102.11782 103.41437 102.8574 103.14947 103.59961 102.87305 A 0.74978231 0.74978231 0 0 1 104.43945 103.09766 C 106.19937 105.22275 107.95902 107.34768 109.71875 109.47266 C 110.99149 108.87569 112.25836 108.20452 113.44336 107.48438 C 114.08408 107.09246 114.70843 106.67746 115.32812 106.25391 C 114.36189 103.67038 113.39595 101.08774 112.42969 98.503906 A 0.74978231 0.74978231 0 0 1 112.6582 97.662109 C 114.42351 96.219363 116.04299 94.59942 117.49219 92.839844 A 0.74978231 0.74978231 0 0 1 118.42969 92.658203 L 118.44727 92.662109 A 0.74978231 0.74978231 0 0 1 118.67969 92.755859 L 126.08398 95.511719 C 126.59946 94.756378 127.11127 93.975557 127.56641 93.210938 C 128.20387 92.14084 128.77938 91.036643 129.30859 89.912109 C 127.18071 88.154342 125.05189 86.39655 122.92383 84.638672 A 0.74978231 0.74978231 0 0 1 122.69727 83.802734 C 123.07342 82.776226 123.42914 81.744117 123.7168 80.695312 A 0.74978231 0.74978231 0 0 1 123.7207 80.683594 A 0.74978231 0.74978231 0 0 1 123.7207 80.679688 C 123.98166 79.732719 124.21574 78.721589 124.38281 77.736328 L 124.38086 77.738281 C 124.4083 77.573711 124.43628 77.410128 124.46289 77.25 A 0.74978231 0.74978231 0 0 1 125.07812 76.632812 C 127.7919 76.176619 130.505 75.719902 133.21875 75.263672 C 133.28494 73.324957 133.2891 71.360727 133.24805 69.40625 C 133.24799 69.404402 133.24811 69.402241 133.24805 69.400391 A 0.74978231 0.74978231 0 0 1 133.24805 69.384766 C 133.24804 69.383197 133.24804 69.382428 133.24805 69.380859 C 133.23952 69.121537 133.2307 68.840197 133.2207 68.564453 C 130.51369 68.202823 127.78063 67.921126 125.06445 67.419922 A 0.74978231 0.74978231 0 0 1 124.45703 66.769531 C 124.45662 66.766883 124.45549 66.764367 124.45508 66.761719 C 124.11011 64.545364 123.47763 62.376321 122.69727 60.255859 A 0.74978231 0.74978231 0 0 1 122.92383 59.417969 C 125.04869 57.663319 127.17369 55.907256 129.29883 54.152344 C 128.38716 52.201545 127.28006 50.34095 126.06641 48.548828 C 123.4845 49.511892 120.90278 50.476304 118.32031 51.439453 A 0.74978231 0.74978231 0 0 1 117.47852 51.210938 C 116.0357 49.451912 114.41964 47.838523 112.6582 46.398438 A 0.74978231 0.74978231 0 0 1 112.42969 45.556641 C 113.39399 42.97677 114.35768 40.396397 115.32227 37.816406 C 113.54306 36.601053 111.66908 35.513216 109.71094 34.591797 C 107.95253 36.71501 106.19354 38.837986 104.43555 40.960938 A 0.74978231 0.74978231 0 0 1 103.5957 41.185547 C 103.32815 41.086195 103.06138 40.989057 102.79297 40.894531 C 101.98887 40.611354 101.18111 40.351382 100.36523 40.132812 L 100.36133 40.132812 C 99.919898 40.016973 99.42991 39.894554 98.96875 39.792969 A 0.74978231 0.74978231 0 0 1 98.947266 39.787109 A 0.74978231 0.74978231 0 0 1 98.939453 39.785156 C 98.31802 39.64502 97.683407 39.534845 97.039062 39.425781 A 0.74978231 0.74978231 0 0 1 96.423828 38.8125 C 95.965173 36.090177 95.507237 33.366796 95.048828 30.644531 C 94.234644 30.584255 93.422047 30.538083 92.615234 30.523438 A 0.74978231 0.74978231 0 0 1 92.613281 30.523438 C 92.191035 30.514384 91.766001 30.514321 91.339844 30.517578 L 91.337891 30.517578 A 0.74978231 0.74978231 0 0 1 91.332031 30.517578 L 91.330078 30.517578 z M 85.738281 105.45312 C 85.746745 105.54297 85.767578 105.73438 85.769531 105.74023 L 85.775391 105.73828 C 85.751236 105.63203 85.735754 105.47944 85.738281 105.45312 z "
       d="m 91.091797,30.447266 c 0.04036,6.51e-4 0.200521,0.002 0.240234,0.002 0.0034,0 4.56e-4,0 0.0039,0 a 0.06840304,0.06840304 0 0 1 0.002,0 c 0.106088,-4.15e-4 0.08225,2.28e-4 0.11914,0 0.111877,-6.92e-4 0.04029,-0.0023 -0.121093,-0.002 -8.66e-4,-2e-6 -0.0011,1e-6 -0.002,0 -0.107298,-2.1e-4 -0.215196,-1.57e-4 -0.242187,0 z m 1.041015,0.0059 c -0.05369,2.79e-4 0.05225,0.0014 0.480469,0.002 a 0.06840304,0.06840304 0 0 1 0.002,0 c 1.284658,-0.0017 -0.32134,-0.0028 -0.482422,-0.002 z m -3.478515,0.107422 c -0.02909,0.008 -0.01254,0.0014 -0.03125,0.0078 -7.74e-4,1.46e-4 -0.0012,-1.48e-4 -0.002,0 -7.86e-4,1.49e-4 -0.0012,-1.5e-4 -0.002,0 -0.0023,4e-4 -0.0034,0.0015 -0.0059,0.002 -5.44e-4,7.2e-5 -0.0014,-7.5e-5 -0.002,0 -5.72e-4,7.6e-5 -0.0014,-7.9e-5 -0.002,0 -0.0041,7.15e-4 -0.0055,0.0012 -0.0098,0.002 -0.0021,2.9e-4 -0.0036,-3.14e-4 -0.0059,0 -0.0027,4.76e-4 -0.0032,0.0015 -0.0059,0.002 -7.45e-4,1.53e-4 -0.0012,-1.51e-4 -0.002,0 -8.42e-4,1.27e-4 -0.0011,-1.28e-4 -0.002,0 -0.0017,2.8e-4 -0.0022,-2.8e-4 -0.0039,0 -9.65e-4,1.73e-4 -0.001,0.0018 -0.002,0.002 -0.0025,3.77e-4 -0.0034,-3.76e-4 -0.0059,0 -7.63e-4,1.37e-4 -0.0012,-1.35e-4 -0.002,0 -0.0026,4.26e-4 -0.0034,0.0015 -0.0059,0.002 -0.0014,2.28e-4 -0.0028,-1.81e-4 -0.0039,0 -0.0066,9.29e-4 -0.0097,0.0011 -0.01563,0.002 -0.0023,3.26e-4 -0.0037,0.0016 -0.0059,0.002 7.76e-4,-1.02e-4 0.0029,1.39e-4 0.0039,0 0.002,-2.77e-4 0.0047,4.33e-4 0.0078,0 8.73e-4,-1.22e-4 9.92e-4,-0.0018 0.002,-0.002 8.48e-4,-1.2e-4 0.001,1.3e-4 0.002,0 0.0046,-6.51e-4 0.0033,9.29e-4 0.0098,0 -1.86e-4,5.3e-5 0.0039,-1.1e-5 0.0039,0 4.4e-4,-1.12e-4 0.0033,1.44e-4 0.0039,0 -5.05e-4,8.9e-5 -0.0015,-0.002 -0.002,-0.002 5.55e-4,-9.7e-5 0.0013,1.1e-4 0.002,0 -1.4e-4,3.8e-5 0.002,-2.8e-5 0.002,0 a 0.06840304,0.06840304 0 0 1 0.02734,0.0059 0.06840304,0.06840304 0 0 1 0.01172,-0.01172 0.06840304,0.06840304 0 0 1 0.0059,-0.002 c 8.93e-4,-1.67e-4 0.0011,1.56e-4 0.002,0 8.22e-4,-1.55e-4 0.0012,1.43e-4 0.002,0 -5.6e-5,10e-7 0.0021,-0.002 0.002,-0.002 a 0.06840304,0.06840304 0 0 1 0.0039,0 c 2.64e-4,-5e-5 0.0017,4.2e-5 0.002,0 4.45e-4,-6.2e-5 0.0016,-0.0019 0.002,-0.002 0.0029,-6.15e-4 0.0036,4.85e-4 0.0059,0 0.0011,-2.18e-4 0.0032,-0.0018 0.0039,-0.002 3.42e-4,-7.3e-5 0.0017,6.2e-5 0.002,0 0.0048,-0.0011 0.0069,-0.0032 0.0098,-0.0039 z m -0.0098,0.0039 c 0.0013,0 0.0091,-0.0013 0.01172,-0.002 -0.0031,6.1e-4 -0.0077,0.0011 -0.01172,0.002 z m -0.105469,0.01758 c -0.0034,5.92e-4 -0.01204,0.0016 -0.01367,0.002 -0.0018,3.3e-4 0.01284,-0.0019 0.01367,-0.002 z m -0.01367,0.002 c -0.0099,0.0014 -0.004,4.34e-4 0,0 z m 2.804687,0.002 c -0.897005,0.01258 -1.771734,0.05049 -2.673828,0.115234 a 0.06840304,0.06840304 0 0 1 -0.0059,0 h -0.002 a 0.06840304,0.06840304 0 0 1 -0.01367,-0.002 c -0.456058,2.707861 -0.910775,5.417055 -1.367188,8.125 l -0.136719,-0.02344 c 0.01445,-0.08485 -0.03071,0.13427 -0.0098,0.05078 0.02094,-0.08349 -0.04293,0.132409 -0.01563,0.05078 0.02731,-0.08163 -0.05109,0.12811 -0.01758,0.04883 0.03351,-0.07928 -0.06296,0.125293 -0.02344,0.04883 0.03952,-0.07646 -0.07068,0.118116 -0.02539,0.04492 0.04529,-0.07319 -0.08009,0.112457 -0.0293,0.04297 0.05079,-0.06949 -0.08725,0.108339 -0.03125,0.04297 0.05599,-0.06537 -0.09797,0.09797 -0.03711,0.03711 0.06086,-0.06086 -0.10248,0.09311 -0.03711,0.03711 0.06537,-0.056 -0.112458,0.08205 -0.04297,0.03125 0.06949,-0.0508 -0.116163,0.07459 -0.04297,0.0293 0.07319,-0.04529 -0.121387,0.06491 -0.04492,0.02539 0.07646,-0.03952 -0.12811,0.05695 -0.04883,0.02344 0.07928,-0.03351 -0.130455,0.04489 -0.04883,0.01758 0.08163,-0.02731 -0.134269,0.03657 -0.05078,0.01563 0.08349,-0.02094 -0.135634,0.02421 -0.05078,0.0098 a 0.06935665,0.06935665 0 0 1 0.02344,0.136719 c -0.720946,0.122902 -1.41165,0.247038 -2.113281,0.408203 a 0.06840304,0.06840304 0 0 1 -0.0098,0 0.06840304,0.06840304 0 0 1 -0.002,0.002 0.06840304,0.06840304 0 0 1 -0.01172,0.0039 c -0.419236,0.09907 -0.887047,0.21053 -1.310547,0.328125 a 0.06840304,0.06840304 0 0 1 -0.0059,0 v 0.002 c -1.040713,0.280468 -2.06965,0.630946 -3.095703,1.011719 a 0.06858211,0.06858211 0 0 1 -0.04687,-0.128906 c 0.08059,-0.03007 -0.133454,0.04133 -0.05078,0.01758 0.08267,-0.02375 -0.135041,0.02902 -0.05078,0.01172 0.08426,-0.0173 -0.138079,0.01855 -0.05273,0.0078 0.08534,-0.01074 -0.1367,0.01 -0.05078,0.0059 0.08592,-0.0041 -0.138714,-0.0025 -0.05273,0 0.08598,0.0025 -0.138263,-0.01307 -0.05273,-0.0039 0.08553,0.0092 -0.137299,-0.02355 -0.05273,-0.0078 0.08456,0.01574 -0.133878,-0.03394 -0.05078,-0.01172 0.0831,0.02222 -0.131914,-0.0442 -0.05078,-0.01563 0.08113,0.02857 -0.127511,-0.05429 -0.04883,-0.01953 0.07868,0.03475 -0.122639,-0.06221 -0.04687,-0.02148 0.07577,0.04073 -0.119268,-0.0738 -0.04687,-0.02734 0.07239,0.04646 -0.111558,-0.0812 -0.04297,-0.0293 0.06859,0.05191 -0.105391,-0.09221 -0.04102,-0.03516 0.06438,0.05705 -0.09689,-0.09701 -0.03711,-0.03516 0.05978,0.06185 -0.08998,-0.105345 -0.03516,-0.03906 a 0.06840304,0.06840304 0 0 1 -0.105469,0.08594 c -1.747051,-2.10999 -3.493414,-4.220271 -5.240234,-6.330078 -1.845082,0.866631 -3.64234,1.889111 -5.326172,3.017578 l -0.002,0.002 a 0.06840304,0.06840304 0 0 1 -0.0059,0.0039 c -7.46e-4,4.99e-4 -0.0012,0.0015 -0.002,0.002 a 0.06840304,0.06840304 0 0 1 -0.002,0.002 c -0.06074,0.0413 -0.119743,0.08245 -0.179688,0.123047 0.960174,2.567697 1.920651,5.135569 2.880859,7.703125 l -0.128906,0.04687 c -0.03006,-0.08066 0.04134,0.13352 0.01758,0.05078 -0.02376,-0.08274 0.02904,0.135104 0.01172,0.05078 -0.01732,-0.08432 0.01859,0.136188 0.0078,0.05078 -0.01078,-0.08541 0.01003,0.138717 0.0059,0.05273 -0.0042,-0.08598 -0.0025,0.138783 0,0.05273 0.0025,-0.08605 -0.01298,0.138339 -0.0039,0.05273 0.0091,-0.08561 -0.02345,0.135432 -0.0078,0.05078 0.01564,-0.08465 -0.03383,0.135931 -0.01172,0.05273 0.02211,-0.0832 -0.04212,0.130076 -0.01367,0.04883 0.02845,-0.08125 -0.05415,0.127645 -0.01953,0.04883 0.03462,-0.07882 -0.06402,0.124746 -0.02344,0.04883 0.04058,-0.07592 -0.07365,0.11749 -0.02734,0.04492 0.04631,-0.07257 -0.08105,0.111757 -0.0293,0.04297 0.05175,-0.06879 -0.0901,0.105616 -0.0332,0.04102 0.0569,-0.0646 -0.09686,0.09714 -0.03516,0.03711 0.0617,-0.06003 -0.105201,0.09026 -0.03906,0.03516 a 0.06840304,0.06840304 0 0 1 0.08594,0.105468 c -0.616393,0.515032 -1.218156,1.025804 -1.78125,1.554688 l -0.002,-0.002 a 0.06840304,0.06840304 0 0 1 -0.002,0.0039 c -1.078009,0.999545 -2.076764,2.089511 -2.99414,3.246094 l -0.105469,-0.08594 c 0.05325,-0.0671 -0.09351,0.103733 -0.03516,0.04102 0.05836,-0.06272 -0.102162,0.09505 -0.03906,0.03711 0.0631,-0.05794 -0.108469,0.08797 -0.04102,0.03516 0.06745,-0.05281 -0.11436,0.0786 -0.04297,0.03125 0.07139,-0.04735 -0.11981,0.06894 -0.04492,0.02734 0.07489,-0.0416 -0.126751,0.06098 -0.04883,0.02539 0.07792,-0.03559 -0.129305,0.0489 -0.04883,0.01953 0.08048,-0.02937 -0.133315,0.03858 -0.05078,0.01563 0.08253,-0.02296 -0.136816,0.03008 -0.05273,0.01367 0.08408,-0.01641 -0.137844,0.01757 -0.05273,0.0078 0.08511,-0.0098 -0.138347,0.007 -0.05273,0.0039 0.08561,-0.003 -0.140276,-0.0037 -0.05469,0 0.08559,0.0037 -0.137768,-0.0143 -0.05273,-0.0039 0.08503,0.01039 -0.13669,-0.0268 -0.05273,-0.0098 0.08396,0.01704 -0.135093,-0.03529 -0.05273,-0.01172 0.08236,0.02358 -0.131036,-0.04755 -0.05078,-0.01758 a 0.06858211,0.06858211 0 0 1 -0.04687,0.128906 c -2.578268,-0.958111 -5.1563,-1.916435 -7.734375,-2.875 -0.59718,0.879946 -1.174131,1.770784 -1.708985,2.6875 l -0.0059,-0.0039 a 0.06840304,0.06840304 0 0 1 -0.0078,0.02344 c -0.200455,0.346236 -0.422472,0.742556 -0.621093,1.113282 a 0.06840304,0.06840304 0 0 1 0,0.002 c -0.04631,0.08588 -0.08559,0.175312 -0.13086,0.261719 -0.244024,0.465823 -0.478811,0.935693 -0.703125,1.412109 2.116624,1.747571 4.232913,3.494865 6.34961,5.242187 a 0.06840304,0.06840304 0 0 1 -0.08594,0.105469 c -0.0663,-0.05473 0.100922,0.09485 0.03906,0.03516 -0.06186,-0.05969 0.09416,0.103367 0.03711,0.03906 -0.05705,-0.0643 0.08511,0.10759 0.0332,0.03906 -0.0519,-0.06853 0.07574,0.117262 0.0293,0.04492 -0.04644,-0.07234 0.06805,0.12064 0.02734,0.04492 -0.0407,-0.07572 0.05815,0.125517 0.02344,0.04687 -0.03472,-0.07864 0.04806,0.129922 0.01953,0.04883 -0.02853,-0.08109 0.03779,0.13384 0.01562,0.05078 -0.02216,-0.08306 0.02738,0.135307 0.01172,0.05078 -0.01566,-0.08452 0.01689,0.138218 0.0078,0.05273 -0.0091,-0.08548 0.0044,0.138665 0.002,0.05273 -0.0024,-0.08593 -0.0042,0.138595 0,0.05273 0.0042,-0.08586 -0.01477,0.138009 -0.0039,0.05273 0.01086,-0.08528 -0.0272,0.136913 -0.0098,0.05273 0.01743,-0.08418 -0.03562,0.133357 -0.01172,0.05078 0.0239,-0.08258 -0.0478,0.131259 -0.01758,0.05078 l 0.128906,0.04687 c -0.794926,2.114483 -1.379871,4.306421 -1.751953,6.535156 a 0.06935665,0.06935665 0 0 1 -0.136719,-0.02344 c 0.01401,-0.08481 -0.0303,0.136205 -0.0098,0.05273 0.02053,-0.08347 -0.04061,0.132411 -0.01367,0.05078 0.02694,-0.08163 -0.05271,0.128126 -0.01953,0.04883 0.03317,-0.0793 -0.0607,0.125319 -0.02148,0.04883 0.03922,-0.07649 -0.07237,0.118147 -0.02734,0.04492 0.04502,-0.07322 -0.07986,0.11444 -0.0293,0.04492 0.05056,-0.06952 -0.08704,0.10641 -0.03125,0.04102 0.05579,-0.06539 -0.09779,0.09994 -0.03711,0.03906 0.06069,-0.06088 -0.102327,0.09115 -0.03711,0.03516 0.06522,-0.056 -0.112327,0.08398 -0.04297,0.0332 0.06936,-0.05078 -0.11605,0.07455 -0.04297,0.0293 0.07308,-0.04525 -0.123241,0.06485 -0.04687,0.02539 0.07637,-0.03946 -0.126069,0.05687 -0.04688,0.02344 0.07919,-0.03343 -0.130371,0.04477 -0.04883,0.01758 0.08154,-0.02719 -0.134186,0.03642 -0.05078,0.01563 0.0834,-0.0208 -0.137499,0.02404 -0.05273,0.0098 l 0.02344,0.136719 c -2.708941,0.454434 -5.41835,0.906931 -8.126953,1.361328 -0.03934,0.563625 -0.07389,1.138962 -0.0918,1.6875 -0.03841,1.208791 -0.03168,2.423681 0.02344,3.615234 a 0.06840304,0.06840304 0 0 1 0,0.002 c 0.01579,0.353152 0.04157,0.695813 0.06641,1.042969 2.707764,0.45536 5.415528,0.910151 8.123047,1.365234 l -0.02344,0.136719 c -0.08485,-0.01445 0.13427,0.03071 0.05078,0.0098 -0.08349,-0.02094 0.132408,0.04293 0.05078,0.01563 -0.08163,-0.02731 0.12811,0.05109 0.04883,0.01758 -0.07928,-0.03351 0.125293,0.06296 0.04883,0.02344 -0.07646,-0.03952 0.118116,0.07068 0.04492,0.02539 -0.07319,-0.04529 0.112458,0.08009 0.04297,0.0293 -0.06949,-0.05079 0.108339,0.08724 0.04297,0.03125 -0.06537,-0.056 0.09797,0.09797 0.03711,0.03711 -0.06086,-0.06086 0.09311,0.10248 0.03711,0.03711 -0.056,-0.06537 0.08205,0.112457 0.03125,0.04297 -0.05079,-0.06949 0.07459,0.116163 0.0293,0.04297 -0.04529,-0.07319 0.06491,0.121387 0.02539,0.04492 -0.03952,-0.07646 0.05695,0.12811 0.02344,0.04883 -0.03351,-0.07928 0.04489,0.130456 0.01758,0.04883 -0.02731,-0.08163 0.03657,0.13427 0.01563,0.05078 -0.02094,-0.08349 0.02421,0.135635 0.0098,0.05078 a 0.06935673,0.06935673 0 0 1 0.136719,-0.02344 c 0.123367,0.72025 0.259421,1.457348 0.414062,2.128906 0.342244,1.494259 0.801266,2.965063 1.34375,4.408204 l -0.128906,0.04687 c -0.03022,-0.08048 0.04148,0.133358 0.01758,0.05078 -0.0239,-0.08258 0.02915,0.134959 0.01172,0.05078 -0.01743,-0.08418 0.02063,0.13801 0.0098,0.05273 -0.01086,-0.08527 0.0081,0.138595 0.0039,0.05273 -0.0042,-0.08586 -0.0024,0.138664 0,0.05273 0.0024,-0.08593 -0.01103,0.138219 -0.002,0.05273 0.0091,-0.08548 -0.02348,0.13726 -0.0078,0.05273 0.01566,-0.08452 -0.03388,0.13384 -0.01172,0.05078 0.02216,-0.08306 -0.04415,0.131875 -0.01563,0.05078 0.02853,-0.08109 -0.05425,0.127471 -0.01953,0.04883 0.03472,-0.07864 -0.06414,0.122593 -0.02344,0.04687 0.0407,-0.07572 -0.07379,0.117262 -0.02734,0.04492 0.04644,-0.07234 -0.0812,0.11345 -0.0293,0.04492 0.0519,-0.06853 -0.09025,0.103366 -0.0332,0.03906 0.05705,-0.0643 -0.09897,0.09876 -0.03711,0.03906 0.06186,-0.05969 -0.105357,0.08988 -0.03906,0.03516 a 0.06840304,0.06840304 0 0 1 0.08594,0.105468 c -2.112752,1.744812 -4.225035,3.491015 -6.337891,5.236328 0.662581,1.401092 1.410492,2.789244 2.222656,4.083985 0.301779,0.478831 0.617736,0.95014 0.9375,1.417969 2.582517,-0.958938 5.165812,-1.916544 7.748047,-2.875 a 0.06858211,0.06858211 0 0 1 0.04687,0.128906 c -0.08025,0.02997 0.13314,-0.04115 0.05078,-0.01758 -0.08236,0.02357 0.13669,-0.02876 0.05273,-0.01172 -0.08396,0.01704 0.137768,-0.02016 0.05273,-0.0098 -0.08503,0.01039 0.138322,-0.0076 0.05273,-0.0039 -0.08559,0.0037 0.140301,0.003 0.05469,0 -0.08561,-0.003 0.137844,0.01366 0.05273,0.0039 -0.08511,-0.0098 0.136816,0.02422 0.05273,0.0078 -0.08408,-0.01641 0.135268,0.03663 0.05273,0.01367 -0.08253,-0.02296 0.131258,0.04499 0.05078,0.01563 -0.08048,-0.02937 0.126751,0.05512 0.04883,0.01953 -0.07792,-0.03559 0.123717,0.06699 0.04883,0.02539 -0.07489,-0.0416 0.116312,0.0747 0.04492,0.02734 -0.07139,-0.04735 0.110423,0.08406 0.04297,0.03125 -0.06745,-0.05281 0.104115,0.0931 0.04102,0.03516 -0.0631,-0.05794 0.09742,0.09983 0.03906,0.03711 -0.05836,-0.06272 0.08841,0.10812 0.03516,0.04102 a 0.06840304,0.06840304 0 0 1 0.105469,-0.08594 c 1.406568,1.770475 3.028407,3.364792 4.779297,4.808594 a 0.06840304,0.06840304 0 0 1 -0.08594,0.105468 c -0.06459,-0.05309 0.102752,0.09751 0.04297,0.03906 -0.05978,-0.05845 0.09555,0.106346 0.04102,0.04297 -0.05453,-0.06338 0.08404,0.114708 0.03516,0.04687 -0.04888,-0.06783 0.07607,0.120615 0.0332,0.04883 -0.04286,-0.07179 0.06387,0.125989 0.02734,0.05078 -0.03653,-0.07521 0.05336,0.132759 0.02344,0.05469 -0.02993,-0.07807 0.04263,0.135043 0.01953,0.05469 -0.0231,-0.08036 0.02977,0.138686 0.01367,0.05664 -0.0161,-0.08205 0.0168,0.14172 0.0078,0.05859 -0.009,-0.08313 0.0057,0.142184 0.0039,0.05859 -0.0018,-0.08359 -0.0074,0.14203 -0.002,0.05859 0.0054,-0.08344 -0.01841,0.141256 -0.0059,0.05859 0.01256,-0.08266 -0.03134,0.137916 -0.01172,0.05664 0.01962,-0.08128 -0.04216,0.135928 -0.01563,0.05664 0.02654,-0.07929 -0.05474,0.131398 -0.02148,0.05469 0.03326,-0.07671 -0.06513,0.126299 -0.02539,0.05273 a 0.06840304,0.06840304 0 0 1 0.126953,0.04883 l -0.0078,0.03125 A 0.06840304,0.06840304 0 0 1 71.083984,98.625 c 0.0459,-0.197742 -0.06179,0.223035 -0.0078,0.02734 0.05398,-0.195691 -0.06978,0.220654 -0.0078,0.02734 0.06197,-0.193311 -0.07766,0.215994 -0.0078,0.02539 0.06985,-0.190603 -0.08934,0.214919 -0.01172,0.02734 0.07762,-0.187576 -0.09502,0.209622 -0.0098,0.02539 0.08525,-0.184231 -0.106414,0.205967 -0.01367,0.02539 0.09274,-0.180576 -0.111796,0.200055 -0.01172,0.02344 0.100077,-0.176617 -0.122868,0.19775 -0.01563,0.02539 a 0.06840304,0.06840304 0 0 1 0.123047,0.05859 l -2.740235,7.328125 c 1.14651,0.77593 2.354575,1.53673 3.582032,2.20703 -1.61e-4,0.45976 6.97e-4,1.08871 0.002,0.12305 a 0.06840304,0.06840304 0 0 1 0,-0.002 c -1.38e-4,-0.10619 1.21e-4,-0.05 0,-0.11915 0.03411,0.0186 0.06743,0.0401 0.101562,0.0586 v 0.002 c 0.594326,0.32216 1.201529,0.61884 1.814453,0.90625 1.750599,-2.11433 3.501036,-4.22929 5.251953,-6.34375 a 0.06840304,0.06840304 0 0 1 0.105469,0.0859 c -0.05482,0.0663 0.09493,-0.10091 0.03516,-0.0391 -0.05978,0.0618 0.101485,-0.0922 0.03711,-0.0352 -0.06438,0.0571 0.109605,-0.0871 0.04102,-0.0352 -0.06859,0.0519 0.115362,-0.0757 0.04297,-0.0293 -0.07239,0.0464 0.12264,-0.0681 0.04687,-0.0274 -0.07576,0.0407 0.125559,-0.0562 0.04687,-0.0215 -0.07868,0.0348 0.129961,-0.0481 0.04883,-0.0195 -0.08113,0.0286 0.133878,-0.0378 0.05078,-0.0156 -0.0831,0.0222 0.135346,-0.0275 0.05078,-0.0117 -0.08456,0.0157 0.138262,-0.017 0.05273,-0.008 -0.08553,0.009 0.138715,-0.006 0.05273,-0.004 -0.08598,0.003 0.138653,0.004 0.05273,0 -0.08592,-0.004 0.136125,0.0166 0.05078,0.006 -0.08534,-0.0107 0.136995,0.0251 0.05273,0.008 -0.08426,-0.0173 0.133453,0.0355 0.05078,0.0117 -0.08267,-0.0238 0.131372,0.0476 0.05078,0.0176 l 0.04687,-0.1289 c 0.977079,0.36517 1.964722,0.70877 2.935547,0.97656 a 0.06840304,0.06840304 0 0 1 0.002,0 c 0.607913,0.16964 1.227339,0.32282 1.826172,0.45313 a 0.06840304,0.06840304 0 0 1 0.0039,0.002 v -0.002 c 0.559802,0.1236 1.181992,0.23093 1.78711,0.33203 l -0.02344,0.13671 c -0.08274,-0.0139 0.1379,0.0326 0.05664,0.0117 -0.08126,-0.0209 0.135833,0.0433 0.05664,0.0156 -0.07919,-0.0277 0.129287,0.0558 0.05273,0.0215 -0.07655,-0.0343 0.126093,0.068 0.05273,0.0274 -0.07336,-0.0407 0.118463,0.0761 0.04883,0.0293 -0.06963,-0.0468 0.112282,0.0877 0.04687,0.0352 -0.06541,-0.0525 0.103674,0.095 0.04297,0.0371 -0.0607,-0.0579 0.09658,0.10583 0.04102,0.043 -0.05557,-0.0629 0.08713,0.11227 0.03711,0.0449 -0.05002,-0.0674 0.07537,0.11823 0.03125,0.0469 -0.04412,-0.0713 0.06719,0.12564 0.0293,0.0508 -0.03789,-0.0748 0.05483,0.13053 0.02344,0.0527 -0.0314,-0.0778 0.0442,0.13487 0.01953,0.0547 -0.02467,-0.0802 0.03144,0.13863 0.01367,0.0566 -0.01777,-0.082 0.0205,0.13985 0.0098,0.0566 -0.01074,-0.0832 0.0095,0.14241 0.0059,0.0586 l 0.136718,-0.004 v -0.008 l 0.002,0.008 h -0.002 l -0.126953,0.043 c -0.06163,-0.1941 0.05993,0.22172 0.0059,0.0254 -0.05407,-0.19634 0.05425,0.22367 0.0078,0.0254 -0.04644,-0.19828 0.04459,0.22531 0.0059,0.0254 -0.03873,-0.19993 0.03487,0.22666 0.0039,0.0254 -0.03096,-0.20128 0.02706,0.22967 0.0039,0.0273 -0.02315,-0.20232 0.01726,0.22846 0.002,0.0254 -0.01531,-0.20307 0.0094,0.2289 0.002,0.0254 -0.0074,-0.2035 -4.39e-4,0.23099 0,0.0274 a 0.06861021,0.06861021 0 0 1 0.136719,-0.0117 c 0.436072,2.58883 0.870577,5.17681 1.30664,7.76562 0.752513,0.0557 1.506269,0.10115 2.246094,0.11719 0.989756,0.0208 1.983964,0.008 2.957032,-0.0371 l 0.03516,-0.002 c 0.243803,-0.012 0.488693,-0.0256 0.730468,-0.041 0.129999,-0.008 0.258365,-0.0193 0.388672,-0.0293 0.456066,-2.70817 0.911082,-5.41654 1.367188,-8.125 l 0.136719,0.0234 c -0.01431,0.0847 0.0306,-0.13609 0.0098,-0.0527 -0.02084,0.0834 0.04287,-0.13227 0.01563,-0.0508 -0.02724,0.0815 0.05106,-0.12796 0.01758,-0.0488 -0.03348,0.0791 0.06296,-0.12512 0.02344,-0.0488 -0.03952,0.0763 0.07071,-0.11792 0.02539,-0.0449 -0.04532,0.073 0.08014,-0.11418 0.0293,-0.0449 -0.05084,0.0693 0.08927,-0.10613 0.0332,-0.041 -0.05607,0.0651 0.09806,-0.0996 0.03711,-0.0391 -0.06095,0.0606 0.104524,-0.0908 0.03906,-0.0352 -0.06546,0.0556 0.110598,-0.0836 0.04102,-0.0332 -0.06958,0.0504 0.116251,-0.0742 0.04297,-0.0293 -0.07328,0.0449 0.123416,-0.0644 0.04687,-0.0254 -0.07654,0.039 0.128167,-0.0545 0.04883,-0.0215 -0.07934,0.033 0.130486,-0.0463 0.04883,-0.0195 -0.08166,0.0267 0.134267,-0.034 0.05078,-0.0137 -0.08348,0.0203 0.137544,-0.0235 0.05273,-0.01 a 0.06935722,0.06935722 0 0 1 -0.02344,-0.13672 c 1.10954,-0.18248 2.221293,-0.39754 3.267577,-0.68164 a 0.06840304,0.06840304 0 0 1 0.004,0 v -0.002 c 0.33147,-0.0885 0.71275,-0.19722 1.04687,-0.29883 a 0.06840304,0.06840304 0 0 1 0.004,0 l -0.002,-0.002 c 0.092,-0.0277 0.18348,-0.0609 0.27539,-0.0898 3.1e-4,-3.1e-4 0.002,3.2e-4 0.002,0 0.64906,-0.20423 1.29615,-0.43206 1.94531,-0.67383 a 0.06858484,0.06858484 0 0 1 0.0469,0.12891 c -0.0806,0.0301 0.13345,-0.0413 0.0508,-0.0176 -0.0827,0.0238 0.13504,-0.029 0.0508,-0.0117 -0.0843,0.0173 0.13808,-0.0185 0.0527,-0.008 -0.0853,0.0107 0.1367,-0.01 0.0508,-0.006 -0.0859,0.004 0.13872,0.003 0.0527,0 -0.086,-0.003 0.13826,0.0131 0.0527,0.004 -0.0855,-0.009 0.1373,0.0236 0.0527,0.008 -0.0846,-0.0157 0.13388,0.0339 0.0508,0.0117 -0.0831,-0.0222 0.13191,0.0442 0.0508,0.0156 -0.0811,-0.0286 0.12751,0.0543 0.0488,0.0195 -0.0787,-0.0348 0.12264,0.0622 0.0469,0.0215 -0.0758,-0.0407 0.11927,0.0738 0.0469,0.0273 -0.0724,-0.0464 0.11156,0.0812 0.043,0.0293 -0.0686,-0.0519 0.10539,0.0922 0.041,0.0352 -0.0644,-0.0571 0.0969,0.097 0.0371,0.0352 -0.0598,-0.0619 0.09,0.10535 0.0352,0.0391 a 0.06840304,0.06840304 0 0 1 0.10547,-0.0859 c 1.74811,2.11084 3.49621,4.2213 5.24414,6.33203 1.2548,-0.59044 2.50389,-1.25114 3.67187,-1.96094 0.624,-0.38169 1.23132,-0.78652 1.83594,-1.19922 -0.95987,-2.56653 -1.919,-5.13237 -2.87891,-7.699216 l 0.12891,-0.04687 c 0.0299,0.08056 -0.0412,-0.133415 -0.0176,-0.05078 0.0236,0.08263 -0.0288,-0.134996 -0.0117,-0.05078 0.0171,0.08421 -0.0183,-0.138022 -0.008,-0.05273 0.0105,0.08529 -0.01,-0.138582 -0.006,-0.05273 0.004,0.08585 0.003,-0.138626 0,-0.05273 -0.003,0.08589 0.0133,-0.138152 0.004,-0.05273 -0.009,0.08542 0.0238,-0.137165 0.008,-0.05273 -0.016,0.08443 0.0342,-0.133716 0.0117,-0.05078 -0.0225,0.08294 0.0445,-0.131721 0.0156,-0.05078 -0.0289,0.08094 0.0546,-0.127286 0.0195,-0.04883 -0.0351,0.07846 0.0645,-0.122379 0.0234,-0.04687 -0.041,0.0755 0.0741,-0.118971 0.0274,-0.04687 -0.0468,0.0721 0.0835,-0.111222 0.0312,-0.04297 -0.0522,0.06825 0.0905,-0.105015 0.0332,-0.04102 -0.0573,0.064 0.0992,-0.09647 0.0371,-0.03711 -0.0621,0.05936 0.10562,-0.08952 0.0391,-0.03516 a 0.06840304,0.06840304 0 0 1 -0.0859,-0.105469 c 1.76176,-1.439842 3.37782,-3.056324 4.82422,-4.8125 l 0.10547,0.08594 c -0.0531,0.0645 0.0976,-0.102648 0.0391,-0.04297 -0.0585,0.05968 0.10639,-0.09543 0.043,-0.04102 -0.0634,0.05442 0.11475,-0.0839 0.0469,-0.03516 -0.0679,0.04875 0.12065,-0.07592 0.0488,-0.0332 -0.0718,0.04272 0.12601,-0.06371 0.0508,-0.02734 -0.0752,0.03637 0.13278,-0.05318 0.0547,-0.02344 -0.0781,0.02975 0.13701,-0.04049 0.0567,-0.01758 -0.0804,0.02291 0.13868,-0.02957 0.0566,-0.01367 -0.082,0.0159 0.14169,-0.01853 0.0586,-0.0098 -0.0831,0.0088 0.14214,-0.0055 0.0586,-0.0039 -0.0835,0.0016 0.14197,0.0076 0.0586,0.002 -0.0834,-0.0056 0.14117,0.01866 0.0586,0.0059 -0.0826,-0.0128 0.13781,0.03159 0.0566,0.01172 -0.0812,-0.01987 0.1358,0.04437 0.0566,0.01758 -0.0792,-0.02679 0.13124,0.055 0.0547,0.02148 -0.0765,-0.03351 0.12611,0.06538 0.0527,0.02539 a 0.06840304,0.06840304 0 0 1 0.0488,-0.126953 l 0.0176,0.0039 a 0.06840304,0.06840304 0 0 1 -0.0293,0.132813 c -0.19806,-0.04335 0.22341,0.05944 0.0273,0.0078 -0.19607,-0.05163 0.22107,0.06762 0.0273,0.0078 -0.19373,-0.05981 0.21839,0.0757 0.0273,0.0078 -0.19104,-0.06789 0.21343,0.08561 0.0254,0.0098 -0.18803,-0.07585 0.21202,0.09539 0.0273,0.01172 -0.18468,-0.08367 0.2064,0.105017 0.0254,0.01367 -0.18101,-0.09135 0.20241,0.11058 0.0254,0.01172 -0.17701,-0.09886 0.1981,0.121828 0.0254,0.01563 a 0.06840304,0.06840304 0 0 1 0.0586,-0.123047 l 7.35352,2.736328 c 0.50479,-0.740862 1.00594,-1.503979 1.45117,-2.251953 0.62719,-1.052849 1.19258,-2.139613 1.71485,-3.246093 -2.11362,-1.745977 -4.228,-3.492183 -6.3418,-5.238282 a 0.06840304,0.06840304 0 0 1 0.0859,-0.105468 c 0.0664,0.05484 -0.10104,-0.09494 -0.0391,-0.03516 0.062,0.05978 -0.0923,-0.101477 -0.0352,-0.03711 0.0572,0.06437 -0.0853,-0.109591 -0.0332,-0.04102 0.0521,0.06857 -0.0779,-0.115345 -0.0313,-0.04297 0.0467,0.07238 -0.0663,-0.120672 -0.0254,-0.04492 0.041,0.07575 -0.0584,-0.125549 -0.0234,-0.04687 0.035,0.07867 -0.0484,-0.12996 -0.0195,-0.04883 0.0288,0.08113 -0.0382,-0.133891 -0.0156,-0.05078 0.0225,0.08311 -0.0278,-0.135377 -0.0117,-0.05078 0.0161,0.0846 -0.0173,-0.136362 -0.008,-0.05078 0.01,0.08558 -0.007,-0.138794 -0.004,-0.05273 0.003,0.08606 0.004,-0.138762 0,-0.05273 -0.004,0.08603 0.0142,-0.138222 0.004,-0.05273 -0.0103,0.08549 0.0247,-0.135222 0.008,-0.05078 -0.0169,0.08444 0.037,-0.133674 0.0137,-0.05078 -0.0233,0.08289 0.0452,-0.131637 0.0156,-0.05078 l -0.12891,-0.04687 c 0.37585,-1.025681 0.7307,-2.05559 1.01758,-3.101563 l 0.13086,0.03906 c -0.0405,0.125194 -0.0364,0.113423 -0.0449,0.140625 -0.0192,0.06112 0.002,-0.0012 0.0488,-0.142578 8.5e-4,-0.0026 0.001,-0.0033 0.002,-0.0059 8.7e-4,-0.0026 0.001,-0.0033 0.002,-0.0059 0.002,0.779887 0.004,0.404022 0.004,-0.01172 0.0449,-0.133183 0.0597,-0.183746 0.0391,-0.125 -0.007,0.01991 -0.0111,0.03146 -0.0391,0.115235 0,-0.428928 -0.002,-0.858035 -0.004,-0.002 l -0.13476,-0.01758 c 0.25957,-0.941933 0.49171,-1.948314 0.6582,-2.927734 a 0.06840304,0.06840304 0 0 1 0,-0.0078 c 0.0275,-0.164757 0.0555,-0.32837 0.082,-0.488281 a 0.06935722,0.06935722 0 0 1 0.13672,0.02344 c -0.014,0.08481 0.0303,-0.136205 0.01,-0.05273 -0.0205,0.08347 0.0406,-0.132411 0.0137,-0.05078 -0.0269,0.08163 0.0527,-0.128127 0.0195,-0.04883 -0.0332,0.0793 0.0607,-0.12532 0.0215,-0.04883 -0.0392,0.07649 0.0724,-0.118147 0.0274,-0.04492 -0.045,0.07322 0.0798,-0.114441 0.0293,-0.04492 -0.0506,0.06952 0.087,-0.106411 0.0312,-0.04102 -0.0558,0.06539 0.0978,-0.09994 0.0371,-0.03906 -0.0607,0.06088 0.10233,-0.09115 0.0371,-0.03516 -0.0652,0.056 0.11233,-0.08398 0.043,-0.0332 -0.0694,0.05078 0.11605,-0.07455 0.043,-0.0293 -0.0731,0.04525 0.12324,-0.06485 0.0469,-0.02539 -0.0764,0.03946 0.12607,-0.05686 0.0469,-0.02344 -0.0792,0.03343 0.13037,-0.04477 0.0488,-0.01758 -0.0815,0.02719 0.13418,-0.03642 0.0508,-0.01562 -0.0834,0.0208 0.1375,-0.02404 0.0527,-0.0098 l -0.0234,-0.136719 c 2.6955,-0.453121 5.39044,-0.906207 8.08593,-1.359375 0.0643,-1.918947 0.068,-3.862396 0.0273,-5.796875 -2.1e-4,-0.0065 -9e-5,-0.0087 0,-0.0059 h 0.002 a 0.06840304,0.06840304 0 0 1 -0.002,-0.01758 c -1e-5,-8.56e-4 0,-0.0012 0,-0.002 v -0.002 c -0.008,-0.240258 -0.0163,-0.500143 -0.0254,-0.755859 -2.68721,-0.357844 -5.40076,-0.640305 -8.10157,-1.138672 l 0.0234,-0.132812 c 0.084,0.01565 -0.13522,-0.03594 -0.0527,-0.01367 0.0825,0.02226 -0.13125,-0.04436 -0.0508,-0.01563 0.0805,0.02874 -0.12871,-0.05456 -0.0508,-0.01953 0.0779,0.03503 -0.12374,-0.06649 -0.0488,-0.02539 0.0749,0.0411 -0.11633,-0.07426 -0.0449,-0.02734 0.0714,0.04692 -0.11238,-0.08368 -0.0449,-0.03125 0.0675,0.05243 -0.1041,-0.09278 -0.041,-0.03516 0.0631,0.05762 -0.0974,-0.09955 -0.0391,-0.03711 0.0583,0.06244 -0.0883,-0.107889 -0.0352,-0.04102 0.0532,0.06687 -0.079,-0.115803 -0.0312,-0.04492 0.0477,0.07088 -0.0712,-0.119364 -0.0293,-0.04492 0.0419,0.07444 -0.0593,-0.126362 -0.0234,-0.04883 0.0359,0.07753 -0.0511,-0.128966 -0.0215,-0.04883 0.0296,0.08014 -0.0388,-0.13497 -0.0156,-0.05273 0.0232,0.08223 -0.0303,-0.13655 -0.0137,-0.05273 0.0166,0.08382 -0.0177,-0.137601 -0.008,-0.05273 a 0.06892268,0.06892268 0 0 1 -0.13672,0.01758 c 0.001,0.0097 3.6e-4,0.0071 -0.002,-0.0078 -0.34406,-2.210502 -0.97463,-4.374671 -1.75391,-6.492187 a 0.06858399,0.06858399 0 0 1 0.12891,-0.04687 c 0.0298,0.08074 -0.0391,-0.133579 -0.0156,-0.05078 0.0235,0.0828 -0.0307,-0.135141 -0.0137,-0.05078 0.017,0.08436 -0.0183,-0.1362 -0.008,-0.05078 0.0105,0.08542 -0.008,-0.138705 -0.004,-0.05273 0.004,0.08597 0.003,-0.138745 0,-0.05273 -0.003,0.08601 0.0114,-0.138272 0.002,-0.05273 -0.009,0.08554 0.0238,-0.137291 0.008,-0.05273 -0.016,0.08456 0.0342,-0.133854 0.0117,-0.05078 -0.0225,0.08307 0.0444,-0.131875 0.0156,-0.05078 -0.0288,0.08109 0.0545,-0.127461 0.0195,-0.04883 -0.035,0.07863 0.0644,-0.122578 0.0234,-0.04687 -0.0409,0.0757 0.074,-0.117246 0.0273,-0.04492 -0.0466,0.07232 0.0814,-0.111482 0.0293,-0.04297 -0.0521,0.06851 0.0924,-0.105311 0.0352,-0.04102 -0.0572,0.0643 0.0971,-0.0968 0.0352,-0.03711 -0.062,0.0597 0.10547,-0.0899 0.0391,-0.03516 a 0.06840304,0.06840304 0 0 1 -0.0859,-0.105469 c 2.11058,-1.742858 4.22115,-3.487314 6.33203,-5.230468 -0.89793,-1.913306 -1.98331,-3.740306 -3.17383,-5.501954 -2.5649,0.956737 -5.12981,1.914275 -7.69531,2.871094 L 118.29688,51.375 c 0.0806,-0.02993 -0.13342,0.04117 -0.0508,0.01758 0.0826,-0.02359 -0.13499,0.02884 -0.0508,0.01172 0.0842,-0.01712 -0.13802,0.01835 -0.0527,0.0078 0.0853,-0.01054 -0.13858,0.0098 -0.0527,0.0059 0.0859,-0.0039 -0.13862,-0.0028 -0.0527,0 0.0859,0.0028 -0.13815,-0.01333 -0.0527,-0.0039 0.0854,0.0094 -0.13717,-0.02383 -0.0527,-0.0078 0.0844,0.01602 -0.13372,-0.03423 -0.0508,-0.01172 0.0829,0.02251 -0.13172,-0.0445 -0.0508,-0.01563 0.0809,0.02887 -0.12729,-0.05459 -0.0488,-0.01953 0.0785,0.03506 -0.12238,-0.06448 -0.0469,-0.02344 0.0755,0.04104 -0.11898,-0.07411 -0.0469,-0.02734 0.0721,0.04677 -0.11122,-0.08347 -0.043,-0.03125 0.0682,0.05222 -0.10501,-0.09055 -0.041,-0.0332 0.064,0.05735 -0.0965,-0.09925 -0.0371,-0.03711 0.0594,0.06214 -0.0895,-0.105616 -0.0352,-0.03906 a 0.06840304,0.06840304 0 0 1 -0.10547,0.08594 c -1.43994,-1.755519 -3.05262,-3.365518 -4.81055,-4.802734 a 0.06840304,0.06840304 0 0 1 0.0859,-0.105469 c 0.0666,0.05437 -0.1012,-0.09452 -0.0391,-0.03516 0.0621,0.05936 -0.0945,-0.101109 -0.0371,-0.03711 0.0573,0.064 -0.0854,-0.109269 -0.0332,-0.04102 0.0522,0.06825 -0.078,-0.115064 -0.0312,-0.04297 0.0468,0.0721 -0.0684,-0.122379 -0.0274,-0.04687 0.041,0.0755 -0.0585,-0.125333 -0.0234,-0.04687 0.0351,0.07846 -0.0484,-0.129768 -0.0195,-0.04883 0.0289,0.08094 -0.0381,-0.133716 -0.0156,-0.05078 0.0225,0.08293 -0.0277,-0.135212 -0.0117,-0.05078 0.016,0.08443 -0.0172,-0.138152 -0.008,-0.05273 0.009,0.08542 -0.007,-0.138626 -0.004,-0.05273 0.003,0.08589 0.004,-0.138583 0,-0.05273 -0.004,0.08585 0.0164,-0.138022 0.006,-0.05273 -0.0105,0.08529 0.0249,-0.136949 0.008,-0.05273 -0.0171,0.08421 0.0353,-0.133416 0.0117,-0.05078 -0.0236,0.08263 0.0475,-0.131337 0.0176,-0.05078 l -0.12891,-0.04687 c 0.95795,-2.562873 1.91482,-5.126429 2.87305,-7.689453 -1.74886,-1.191486 -3.58854,-2.258701 -5.50976,-3.166016 -1.74662,2.108965 -3.49406,4.217481 -5.24024,6.326172 a 0.06840304,0.06840304 0 0 1 -0.10547,-0.08594 c 0.0548,-0.06628 -0.0949,0.100913 -0.0352,0.03906 0.0598,-0.06185 -0.10149,0.09221 -0.0371,0.03516 0.0644,-0.05705 -0.10961,0.08706 -0.041,0.03516 0.0686,-0.05191 -0.11536,0.07575 -0.043,0.0293 0.0724,-0.04646 -0.12264,0.06807 -0.0469,0.02734 0.0758,-0.04073 -0.12556,0.05624 -0.0469,0.02148 0.0787,-0.03475 -0.12996,0.0481 -0.0488,0.01953 0.0811,-0.02857 -0.13387,0.03785 -0.0508,0.01563 0.0831,-0.02222 -0.13534,0.02746 -0.0508,0.01172 0.0846,-0.01574 -0.13826,0.01698 -0.0527,0.0078 0.0855,-0.0092 -0.13872,0.0064 -0.0527,0.0039 0.086,-0.0025 -0.13865,-0.0041 -0.0527,0 0.0859,0.0041 -0.13613,-0.0166 -0.0508,-0.0059 0.0853,0.01074 -0.137,-0.02511 -0.0527,-0.0078 0.0843,0.0173 -0.13345,-0.03547 -0.0508,-0.01172 0.0827,0.02375 -0.13137,-0.04765 -0.0508,-0.01758 A 0.06858125,0.06858125 0 0 1 103.57227,41.25 c -0.26728,-0.09925 -0.53478,-0.19665 -0.80274,-0.291016 -0.80234,-0.282557 -1.60685,-0.541883 -2.41992,-0.759765 a 0.06840304,0.06840304 0 0 1 -0.006,0 c -0.440856,-0.115688 -0.930799,-0.238553 -1.390625,-0.339844 l 0.002,-0.0078 a 0.06840304,0.06840304 0 0 1 -0.03125,0 c -0.61919,-0.13963 -1.252326,-0.248389 -1.896484,-0.357421 a 0.06935665,0.06935665 0 0 1 0.02344,-0.136719 c 0.08485,0.01421 -0.136239,-0.03048 -0.05273,-0.0098 0.0835,0.02072 -0.130485,-0.04272 -0.04883,-0.01563 0.08166,0.0271 -0.130104,-0.0509 -0.05078,-0.01758 0.07932,0.03332 -0.123391,-0.06082 -0.04688,-0.02148 0.07652,0.03934 -0.120127,-0.07247 -0.04687,-0.02734 0.07325,0.04512 -0.112522,-0.07994 -0.04297,-0.0293 0.06955,0.05064 -0.106454,-0.08711 -0.04102,-0.03125 0.06544,0.05586 -0.1,-0.09785 -0.03906,-0.03711 0.06093,0.06074 -0.09122,-0.10237 -0.03516,-0.03711 0.05607,0.06526 -0.08406,-0.110407 -0.0332,-0.04102 0.05086,0.06939 -0.07465,-0.118031 -0.0293,-0.04492 0.04536,0.07311 -0.06497,-0.121312 -0.02539,-0.04492 0.03958,0.07639 -0.05701,-0.126092 -0.02344,-0.04687 0.03357,0.07922 -0.04493,-0.132352 -0.01758,-0.05078 0.02736,0.08157 -0.03661,-0.13422 -0.01563,-0.05078 0.02098,0.08344 -0.02425,-0.135589 -0.0098,-0.05078 l -0.136719,0.02344 c -0.455688,-2.704713 -0.909801,-5.41059 -1.365235,-8.115235 -0.79568,-0.05831 -1.58937,-0.102891 -2.376953,-0.117187 a 0.06840304,0.06840304 0 0 1 -0.002,0 c -0.421269,-0.009 -0.845682,-0.0091 -1.271484,-0.0059 a 0.06840304,0.06840304 0 0 1 -0.002,0 0.06840304,0.06840304 0 0 1 -0.0059,0 z m 10.298832,72.896482 c -0.0684,0.0677 -0.20638,0.20443 -0.20703,0.20508 a 0.06840304,0.06840304 0 0 1 0,0.002 c 0.0923,-0.0918 0.14033,-0.14047 0.20703,-0.20703 z M 55.097656,52.710938 c 2.34e-4,-0.05714 0.0016,-0.0348 0.002,-0.291016 a 0.06840304,0.06840304 0 0 1 0,-0.0039 0.06840304,0.06840304 0 0 1 0,-0.002 c -0.0015,-1.119957 -0.0024,-0.104582 -0.002,0.296876 z M 98.724609,39.658203 c -0.01329,-0.0032 0.08077,0.02182 0.117188,0.03125 0.007,0.0018 0.01397,0.0035 0.02344,0.0059 0.03323,0.0084 0.01436,0.0046 0.08203,0.02148 0.0098,0.0025 0.0011,0.0012 0.01172,0.0039 0.0024,6.42e-4 0.0013,-6.8e-4 0.0039,0 a 0.06840304,0.06840304 0 0 1 0.02148,0.01367 l 0.002,-0.0078 c 0.0044,0.0011 0.0016,9.03e-4 0.0059,0.002 0.0056,0.0015 0.0029,6.13e-4 0.0078,0.002 0.0038,0.001 0.0024,0.001 0.0059,0.002 0.0012,3.17e-4 7.51e-4,-3.08e-4 0.002,0 0.0038,0.0011 0.0045,0.001 0.0078,0.002 0.004,0.0011 0.0044,0.0011 0.0078,0.002 0.0024,6.49e-4 0.0038,0.0014 0.0059,0.002 0.0021,5.47e-4 0.004,-4.75e-4 0.0059,0 0.0049,0.0012 0.0053,0.0028 0.0098,0.0039 0.0039,0.001 0.0162,0.0055 0.01758,0.0059 -5.55e-4,-1.24e-4 -0.01317,-0.0052 -0.01563,-0.0059 0.0076,0.0019 0.02558,0.0055 0.02734,0.0059 0.0018,4.07e-4 0.03052,0.0087 0.02734,0.0078 0.007,0.0017 0.03276,0.0073 0.03516,0.0078 0.0039,8.89e-4 0.06297,0.01534 0.05664,0.01367 -0.01438,-0.0037 -0.07399,-0.0205 -0.117187,-0.03125 -0.03794,-0.0097 -0.05892,-0.01362 -0.105469,-0.02539 -0.0035,-8.74e-4 -0.0044,-0.0011 -0.0078,-0.002 -0.0018,-4.64e-4 -0.0021,-0.0015 -0.0039,-0.002 -0.0016,-4.53e-4 -0.0023,4.5e-4 -0.0039,0 -0.0034,-9.29e-4 -0.0045,-0.001 -0.0078,-0.002 -0.0026,-7.28e-4 -0.0033,-0.0012 -0.0059,-0.002 -0.004,-0.0011 -0.0059,-9.03e-4 -0.0098,-0.002 -0.0016,-4.32e-4 -0.0023,-0.0015 -0.0039,-0.002 -8.05e-4,-2.03e-4 -0.0011,2.03e-4 -0.002,0 -0.004,-0.0011 -0.006,-0.0028 -0.0098,-0.0039 -0.0013,-3.57e-4 -0.0026,3.47e-4 -0.0039,0 -0.0033,-9.16e-4 -0.0067,-0.0011 -0.0098,-0.002 -0.0051,-0.0013 -0.0067,-0.0027 -0.01172,-0.0039 -0.008,-0.0022 -0.02531,-0.0068 -0.0293,-0.0078 -0.05273,-0.01326 -0.121393,-0.0295 -0.136719,-0.0332 z m -14.201171,0.09375 c -0.0095,0.0023 -0.0218,0.0046 -0.03516,0.0078 -0.0038,0.001 -0.0034,7.56e-4 -0.0078,0.002 -0.0064,0.0017 -0.0089,0.0021 -0.01563,0.0039 -0.0013,3.59e-4 -5.75e-4,-3.69e-4 -0.002,0 -0.0026,6.76e-4 -0.0033,0.0013 -0.0059,0.002 -0.0042,0.001 -0.0055,9.11e-4 -0.0098,0.002 -0.0034,8.43e-4 -0.0044,0.0011 -0.0078,0.002 -8.09e-4,2.13e-4 -0.0011,-2.12e-4 -0.002,0 -0.0026,6.46e-4 -0.0032,0.0013 -0.0059,0.002 -0.01054,0.0025 -0.01322,0.0034 -0.02344,0.0059 -0.0058,0.0014 -0.0082,0.0026 -0.01367,0.0039 0.005,-0.0012 0.0038,-5.62e-4 0.0098,-0.002 0.0036,-9.18e-4 0.0036,-8.79e-4 0.0078,-0.002 0.0072,-0.0019 0.01,-0.0019 0.01758,-0.0039 a 0.06840304,0.06840304 0 0 1 0.0059,0 0.06840304,0.06840304 0 0 1 0.002,0 0.06840304,0.06840304 0 0 1 0.0039,-0.002 0.06840304,0.06840304 0 0 1 0.002,0 c 0.002,-5.04e-4 0,-0.0015 0.002,-0.002 a 0.06840304,0.06840304 0 0 1 0.0039,0 c 0.0063,-0.0016 0.0022,-5.44e-4 0.0078,-0.002 0.04794,-0.01202 0.05944,-0.0157 0.06641,-0.01758 z m -0.128907,0.03125 c -0.0037,9.51e-4 -0.0063,0.0011 -0.0098,0.002 -0.01243,0.0031 -0.02429,0.0056 -0.0332,0.0078 -0.01855,0.0048 0.0042,-2.13e-4 0.01953,-0.0039 -0.03274,0.0087 -0.01544,0.004 0.02344,-0.0059 z m -1.169922,0.283203 c -0.03841,0.01237 -0.116536,0.03841 -0.117187,0.03906 0.0031,-0.001 8.56e-4,0.001 0.0039,0 0.10133,-0.03424 0.07855,-0.02723 0.113281,-0.03906 z m -0.117187,0.03906 c -0.05021,0.01685 -0.07263,0.02341 -0.113281,0.03711 0.0336,-0.01096 0.01554,-0.0036 0.105468,-0.0332 a 0.06840304,0.06840304 0 0 1 0.0059,-0.002 c 0.0021,-6.89e-4 -1.47e-4,-0.0013 0.002,-0.002 z M 55.787109,51.183594 c -0.0068,0.0096 -0.01397,0.01984 -0.02344,0.0332 -0.0056,0.0083 -0.0025,0.0029 -0.0098,0.01367 -0.0018,0.0026 -0.0021,0.0033 -0.0039,0.0059 -0.0018,0.0025 -0.0021,0.0033 -0.0039,0.0059 -0.0014,0.002 -0.0025,0.0019 -0.0039,0.0039 -0.0022,0.0031 -0.0017,0.0047 -0.0039,0.0078 -7.26e-4,0.0011 7.1e-4,9.23e-4 0,0.002 a 0.06840304,0.06840304 0 0 1 0.01367,-0.01172 l -0.0039,-0.0039 c 0.03031,-0.04334 0.03361,-0.04864 0.03906,-0.05664 z m -0.04883,0.07227 c -4.82e-4,7.01e-4 -0.0015,-6.89e-4 -0.002,0 -0.0053,0.0076 -0.0067,0.01033 -0.01172,0.01758 0.0035,-0.0051 0.0061,-0.0063 0.0098,-0.01172 0.0017,-0.0025 1.23e-4,-0.0013 0.002,-0.0039 0.0012,-0.0018 6.81e-4,-1.36e-4 0.002,-0.002 z m -0.01367,0.01758 c -0.0013,0.0013 -0.0065,0.0091 -0.0078,0.01172 0.0033,-0.0047 0.0035,-0.0054 0.0078,-0.01172 z m -0.01563,0.02344 c -0.0013,0.0013 -0.0052,0.0065 -0.0059,0.0078 6.35e-4,-9.06e-4 0.0031,-0.0028 0.0039,-0.0039 8.08e-4,-0.0012 0.0011,-0.0027 0.002,-0.0039 z m -0.0059,0.0078 c -0.0018,0.0027 -0.0042,0.0054 -0.0059,0.0078 -0.0058,0.0086 -0.01724,0.02778 -0.01953,0.03125 -0.003,0.0046 0.01994,-0.03129 0.02539,-0.03906 z m 77.617185,17.841796 c -1.4e-4,-0.0094 -0.002,0.06914 -0.002,0.08203 -3.6e-4,0.01897 -0.002,0.02834 -0.002,0.148437 -7e-5,0.0067 7e-5,8.15e-4 0,0.0078 a 0.06840304,0.06840304 0 0 1 -0.002,0.01563 h 0.002 c 0.001,0.139975 0.001,0.131699 0.002,0.15625 0.001,0.05033 0.003,-0.01547 0.002,-0.160157 -2e-5,-0.0035 2e-5,-0.0043 0,-0.0078 5.6e-4,-0.107629 4.2e-4,-0.214834 0,-0.242188 z m -83.087888,4.533204 c -8.37e-4,0.161081 2.8e-4,1.767079 0.002,0.482421 a 0.06840304,0.06840304 0 0 1 0,-0.002 c -5.58e-4,-0.428219 -0.0017,-0.534162 -0.002,-0.480468 z m 73.556638,7.003906 c 3e-5,0.0087 -2e-5,0.0013 0,0.0098 -0.003,0.0082 -9.1e-4,0.001 -0.004,0.0098 z M 82.966797,103.91602 c -1.712877,0.002 1.71483,0.002 0.002,0 a 0.06840304,0.06840304 0 0 1 -0.002,0 z m 1.832031,0.45312 c -1.712877,0.002 1.71483,0.002 0.002,0 a 0.06840304,0.06840304 0 0 1 -0.002,0 z"
       transform="translate(-28.127699,-3.971271)"
       inkscape:label="path976" />
  </g>
</svg>
