<?xml version="1.0" encoding="UTF-8" standalone="no"?>
<!-- Created with Inkscape (http://www.inkscape.org/) -->

<svg
   xmlns:dc="http://purl.org/dc/elements/1.1/"
   xmlns:cc="http://creativecommons.org/ns#"
   xmlns:rdf="http://www.w3.org/1999/02/22-rdf-syntax-ns#"
   xmlns:svg="http://www.w3.org/2000/svg"
   xmlns="http://www.w3.org/2000/svg"
   xmlns:sodipodi="http://sodipodi.sourceforge.net/DTD/sodipodi-0.dtd"
   xmlns:inkscape="http://www.inkscape.org/namespaces/inkscape"
   width="210mm"
   height="297mm"
   viewBox="0 0 210 297"
   version="1.1"
   id="svg1033"
   inkscape:version="0.92.5 (2060ec1f9f, 2020-04-08)"
   sodipodi:docname="zahnrad.svg">
  <defs
     id="defs1027" />
  <sodipodi:namedview
     id="base"
     pagecolor="#ffffff"
     bordercolor="#666666"
     borderopacity="1.0"
     inkscape:pageopacity="0.0"
     inkscape:pageshadow="2"
     inkscape:zoom="0.35"
     inkscape:cx="400"
     inkscape:cy="560"
     inkscape:document-units="mm"
     inkscape:current-layer="layer1"
     showgrid="false"
     inkscape:window-width="1863"
     inkscape:window-height="953"
     inkscape:window-x="56"
     inkscape:window-y="27"
     inkscape:window-maximized="1" />
  <metadata
     id="metadata1030">
    <rdf:RDF>
      <cc:Work
         rdf:about="">
        <dc:format>image/svg+xml</dc:format>
        <dc:type
           rdf:resource="http://purl.org/dc/dcmitype/StillImage" />
        <dc:title></dc:title>
      </cc:Work>
    </rdf:RDF>
  </metadata>
  <g
     inkscape:label="Layer 1"
     inkscape:groupmode="layer"
     id="layer1">
    <path
       style="fill:#000000;fill-opacity:1;fill-rule:nonzero;stroke-width:0;stroke-linecap:butt;stroke-linejoin:miter;stroke-miterlimit:10"
       id="path6152-7"
       d="m 114.08464,143.67625 c -1.59584,2.6556 -3.19168,5.3112 -4.78753,7.96681 -0.98618,-1.63673 -1.97235,-3.27345 -2.95854,-4.91018 -3.77895,0.83087 -7.725665,0.83212 -11.504515,0 -0.98742,1.63673 -1.97483,3.27345 -2.96226,4.91018 -1.6877,-2.67234 -3.16907,-5.54586 -4.98404,-8.09409 -8.19949,-4.76613 -13.28443,-14.24919 -12.77974,-23.73626 0.21709,-9.2679 5.80791,-18.06758 14.00533,-22.304102 0,-1.961329 0,-3.922667 0,-5.883996 8.31408,0 16.628145,0 24.942205,0 0,1.961329 0,3.922667 0,5.883996 8.27391,4.254942 13.82788,13.162682 14.03667,22.489262 0.3287,11.66293 -5.37768,19.03337 -13.00758,23.67838 z m 27.86178,-26.99465 c -1.75533,-0.28811 -5.24356,-0.59983 -8.55909,-1.20285 -0.34178,-2.15986 -0.94387,-4.27467 -1.69728,-6.32461 2.23031,-1.84161 4.46063,-3.6832 6.69094,-5.52479 -1.0631,-2.41318 -2.43241,-4.67797 -3.93555,-6.838413 -2.71174,1.011407 -5.4235,2.022825 -8.13524,3.034234 -1.39632,-1.699152 -2.95975,-3.260359 -4.65955,-4.653284 1.01248,-2.707875 2.02495,-5.415761 3.03742,-8.123635 -2.15193,-1.520089 -4.43999,-2.856817 -6.84498,-3.932631 -1.84486,2.227691 -3.68974,4.455383 -5.53461,6.683076 -2.05012,-0.765604 -4.1718,-1.33808 -6.3308,-1.694481 -0.48044,-2.853998 -0.96087,-5.708001 -1.44131,-8.562007 -2.62849,-0.239051 -5.274585,-0.238597 -7.903085,0 -0.48069,2.854006 -0.96138,5.708009 -1.44207,8.562007 -2.15837,0.360196 -4.28044,0.928386 -6.33079,1.694481 -1.84462,-2.227693 -3.68924,-4.455385 -5.53387,-6.683076 -2.41009,1.067954 -4.68479,2.423532 -6.84497,3.932631 1.01248,2.707874 2.02494,5.41576 3.03742,8.123635 -1.68481,1.398902 -3.2735,2.931412 -4.63351,4.653284 -2.71968,-1.011409 -5.43937,-2.022827 -8.15905,-3.034234 -1.50907,2.157311 -2.87015,4.427333 -3.93852,6.838413 2.23057,1.84159 4.46112,3.68318 6.69169,5.52479 -0.76748,2.04721 -1.33518,4.1678 -1.69805,6.32461 -2.85709,0.47944 -5.71417,0.95888 -8.57127,1.43833 -0.22472,2.62411 -0.22495,5.26654 0,7.89063 2.8571,0.48044 5.71418,0.96088 8.57127,1.44132 0.36191,2.15579 0.92701,4.27677 1.69805,6.32162 -2.23057,1.84259 -4.46112,3.68518 -6.69169,5.52778 1.07689,2.40443 2.41803,4.68724 3.93852,6.83468 2.71968,-1.01018 5.43937,-2.02033 8.15905,-3.03051 1.36512,1.71701 2.94678,3.2559 4.63351,4.65253 -1.01248,2.70715 -2.02494,5.41428 -3.03742,8.12141 2.16051,1.50858 4.43385,2.86655 6.84497,3.93263 1.84463,-2.22795 3.68925,-4.4559 5.53387,-6.68382 2.04751,0.77317 4.17137,1.34732 6.33079,1.6982 0.48069,2.85301 0.96138,5.70603 1.44207,8.55903 2.62867,0.24078 5.274395,0.2406 7.903085,0 0.48044,-2.853 0.96087,-5.70602 1.44131,-8.55903 2.15965,-0.34691 4.28355,-0.92551 6.3308,-1.6982 1.84487,2.22792 3.68975,4.45587 5.53461,6.68382 2.40612,-1.07384 4.69255,-2.41326 6.84498,-3.93263 -1.01247,-2.70713 -2.02494,-5.41426 -3.03742,-8.12141 1.70162,-1.39075 3.25829,-2.95821 4.65955,-4.65253 2.71174,1.01018 5.4235,2.02033 8.13524,3.03051 1.51477,-2.15048 2.86386,-4.42821 3.93555,-6.83468 -2.23031,-1.8426 -4.46063,-3.68519 -6.69094,-5.52778 0.75721,-2.04756 1.35648,-4.16319 1.69728,-6.32162 2.85735,-0.48044 5.71469,-0.96088 8.57203,-1.44132 0.12825,-2.35178 0.0931,-6.57397 -0.0129,-8.12611 z"
       inkscape:connector-curvature="0" />
    <path
       style="fill:#000500;fill-opacity:1;fill-rule:evenodd;stroke-width:0;stroke-linecap:butt;stroke-linejoin:miter;stroke-miterlimit:10"
       id="path6156"
       d="M 111.87245,92.806044 H 89.325495 v 5.937021 h 5.53162 v -1.207567 h 2.96152 V 108.6142 h -1.18535 v 4.7556 h 7.903085 v -4.7556 h -1.18313 V 97.561629 h 2.98533 v 1.181436 h 5.53388 v -5.937021"
       inkscape:connector-curvature="0" />
    <path
       style="fill:#000500;fill-opacity:1;fill-rule:evenodd;stroke-width:0;stroke-linecap:butt;stroke-linejoin:miter;stroke-miterlimit:10"
       id="path6160"
       d="m 88.320215,101.90499 v 4.75485 h 1.20917 v 18.97084 l -1.20917,-0.0269 v 4.7556 h 7.92912 v -4.75559 h -1.18609 v -4.72871 h 11.068465 v 4.72871 h -1.18312 v 4.75559 h 7.90085 v -4.75559 h -1.18311 v -18.96711 l 1.18311,0.0232 v -4.75485 h -7.90085 v 4.75485 h 1.18312 v 9.4604 H 95.063245 v -9.4604 h 1.18609 v -4.75485 h -7.92912"
       inkscape:connector-curvature="0" />
    <path
       style="fill:#000500;fill-opacity:1;fill-rule:evenodd;stroke-width:0;stroke-linecap:butt;stroke-linejoin:miter;stroke-miterlimit:10"
       id="path6164"
       d="m 100.59785,134.83418 8.69926,14.46917 11.40258,-18.96786 h 2.8313 v -4.73169 h -9.47238 v 4.73169 h 1.10721 l -5.86871,9.76734 -8.72531,-14.49903 -8.700005,14.49903 -5.84192,-9.76734 h 1.10721 v -4.73169 h -9.49916 v 4.73169 h 2.85734 l 11.40258,18.96786 8.700005,-14.46917"
       inkscape:connector-curvature="0" />
  </g>
</svg>
