<?xml version="1.0" encoding="UTF-8" standalone="no"?>
<svg
   xmlns:dc="http://purl.org/dc/elements/1.1/"
   xmlns:cc="http://creativecommons.org/ns#"
   xmlns:rdf="http://www.w3.org/1999/02/22-rdf-syntax-ns#"
   xmlns:svg="http://www.w3.org/2000/svg"
   xmlns="http://www.w3.org/2000/svg"
   xmlns:sodipodi="http://sodipodi.sourceforge.net/DTD/sodipodi-0.dtd"
   xmlns:inkscape="http://www.inkscape.org/namespaces/inkscape"
   width="210mm"
   height="297mm"
   viewBox="0 0 210 297"
   version="1.1"
   id="svg8"
   inkscape:version="1.0.2 (e86c870879, 2021-01-15)"
   sodipodi:docname="zahnrad_01.svg"
   inkscape:export-filename="/home/domi/KiCad/THW_badge/KiCad/Graphics/Silkscreen.png"
   inkscape:export-xdpi="96"
   inkscape:export-ydpi="96">
  <defs
     id="defs2" />
  <sodipodi:namedview
     id="base"
     pagecolor="#ffffff"
     bordercolor="#666666"
     borderopacity="1.0"
     inkscape:pageopacity="0.0"
     inkscape:pageshadow="2"
     inkscape:zoom="7.919596"
     inkscape:cx="324.32685"
     inkscape:cy="159.99024"
     inkscape:document-units="mm"
     inkscape:current-layer="g968"
     showgrid="false"
     inkscape:window-width="1916"
     inkscape:window-height="1040"
     inkscape:window-x="1920"
     inkscape:window-y="18"
     inkscape:window-maximized="0"
     inkscape:document-rotation="0" />
  <metadata
     id="metadata5">
    <rdf:RDF>
      <cc:Work
         rdf:about="">
        <dc:format>image/svg+xml</dc:format>
        <dc:type
           rdf:resource="http://purl.org/dc/dcmitype/StillImage" />
        <dc:title></dc:title>
      </cc:Work>
    </rdf:RDF>
  </metadata>
  <g
     inkscape:label="Silkscreen"
     inkscape:groupmode="layer"
     id="layer1"
     style="mix-blend-mode:normal"
     sodipodi:insensitive="true">
    <path
       id="path953"
       style="fill:#000000;fill-opacity:1;fill-rule:evenodd;stroke:#000000;stroke-width:0.0962057;stroke-linecap:butt;stroke-linejoin:miter;stroke-miterlimit:10;stroke-dasharray:none;stroke-opacity:1"
       d="m 91.330857,29.768211 c -0.928121,0.01283 -1.837486,0.05001 -2.771923,0.117822 a 0.34009737,0.34009737 0 0 0 -0.09405,0.02066 c 0.09091,-0.03396 0.0073,-0.01339 -0.112138,-0.01138 -0.05973,0.0011 -0.140547,-0.0011 -0.251664,0.05685 -0.111119,0.05785 -0.217929,0.219192 -0.229444,0.348298 l 0.0031,-0.02635 c -0.47235,2.804271 -0.943835,5.608839 -1.416452,8.412922 -0.733343,0.125015 -1.446086,0.25323 -2.182294,0.42323 a 0.34009737,0.34009737 0 0 0 -0.0016,5.29e-4 c -0.419772,0.0992 -0.898361,0.213963 -1.34307,0.337447 -1.075306,0.28979 -2.12716,0.648774 -3.166731,1.034563 -1.831592,-2.212094 -3.663159,-4.424203 -5.494756,-6.636287 a 0.34009737,0.34009737 0 0 0 -0.403077,-0.0925 c -2.01422,0.919663 -3.952938,2.049899 -5.769157,3.268017 a 0.34009737,0.34009737 0 0 0 -0.0016,0.0016 c -0.162115,0.110241 -0.32758,0.220776 -0.493508,0.33538 a 0.34009737,0.34009737 0 0 0 -0.125058,0.398426 c 1.003959,2.684735 2.007674,5.370073 3.011704,8.054805 -0.618813,0.517054 -1.234493,1.038461 -1.818494,1.586982 -1.110541,1.02971 -2.137291,2.148604 -3.078882,3.335715 -2.698631,-1.002839 -5.397008,-2.006793 -8.095631,-3.010154 a 0.34009737,0.34009737 0 0 0 -0.398426,0.126093 c -0.683572,0.992489 -1.333836,2.008611 -1.941999,3.050976 a 0.34009737,0.34009737 0 0 0 -5.29e-4,0.0011 c -0.207669,0.358214 -0.440026,0.769773 -0.647507,1.157036 -0.36182,0.671015 -0.702069,1.353571 -1.020093,2.046385 a 0.34009737,0.34009737 0 0 0 0.0925,0.404112 c 2.215033,1.82877 4.42985,3.65783 6.645074,5.486487 -0.813779,2.16463 -1.414502,4.405823 -1.795241,6.686412 -2.834491,0.475496 -5.668922,0.95119 -8.503356,1.426787 a 0.34009737,0.34009737 0 0 0 -0.28267,0.309025 c -0.0538,0.691957 -0.09247,1.413823 -0.114721,2.096511 -0.03908,1.229823 -0.02978,2.466898 0.02635,3.680396 0.02201,0.492255 0.05206,0.95454 0.08837,1.439188 a 0.34009737,0.34009737 0 0 0 0.282671,0.31006 c 2.8327,0.476295 5.665395,0.952714 8.498189,1.428853 0.124655,0.727771 0.262429,1.47796 0.422714,2.174029 0.351692,1.535509 0.821198,3.040739 1.374592,4.512902 -2.213859,1.828311 -4.427294,3.657018 -6.640938,5.485453 a 0.34009737,0.34009737 0 0 0 -0.0925,0.404109 c 0.713261,1.548982 1.552421,3.073423 2.445329,4.496884 a 0.34009737,0.34009737 0 0 0 0,5.3e-4 c 0.374446,0.594174 0.7619,1.180827 1.163236,1.758031 a 0.34009737,0.34009737 0 0 0 0.39739,0.12454 c 2.700875,-1.002969 5.401466,-2.006621 8.102349,-3.009117 1.44848,1.823231 3.113646,3.457101 4.900993,4.930965 -0.02617,0.04056 -0.05461,0.06729 -0.06976,0.156578 l 0.01241,-0.03307 -0.02119,0.09715 c 0.0019,-0.0265 0.0055,-0.04472 0.0088,-0.06408 l -2.950726,7.888929 a 0.34009737,0.34009737 0 0 0 0.125574,0.39946 c 1.28475,0.88218 2.669378,1.75047 4.07262,2.50991 0.717306,0.38882 1.448141,0.75469 2.191081,1.094 a 0.34009737,0.34009737 0 0 0 0.403076,-0.0925 c 1.831555,-2.21197 3.663157,-4.42388 5.494756,-6.63577 0.988914,0.3696 1.996257,0.71931 3.002399,0.99684 0.624708,0.17433 1.258448,0.3301 1.871721,0.46354 0.585483,0.12928 1.220792,0.24035 1.829863,0.3421 -0.0013,0.0472 -0.01159,0.0786 0.01707,0.15864 -0.0019,-0.0103 -0.0034,-0.0207 -0.0052,-0.031 l 0.02687,0.0863 c -0.01032,-0.0223 -0.01564,-0.0383 -0.0217,-0.0553 0.46746,2.77523 0.935037,5.55037 1.402498,8.32559 a 0.34009737,0.34009737 0 0 0 0.307475,0.28267 c 0.89219,0.0734 1.785897,0.11944 2.664954,0.13849 1.008801,0.0212 2.023997,0.008 3.015319,-0.0382 a 0.34009737,0.34009737 0 0 0 5.29e-4,0 c 0.258453,-0.0126 0.517403,-0.0269 0.776182,-0.0434 0.258775,-0.0165 0.517379,-0.0352 0.776179,-0.0568 a 0.34009737,0.34009737 0 0 0 0.02532,-0.003 0.34009737,0.34009737 0 0 0 0.281639,-0.27957 c 0.476879,-2.83135 0.954111,-5.66266 1.430919,-8.49406 1.125337,-0.18508 2.262616,-0.40686 3.348633,-0.70176 l 0.001,-5.3e-4 c 0.34168,-0.0912 0.73004,-0.20175 1.07436,-0.30644 0.76978,-0.23183 1.5225,-0.50342 2.27014,-0.78187 1.83094,2.21085 3.66177,4.42181 5.49269,6.63268 a 0.34009737,0.34009737 0 0 0 0.40359,0.092 c 1.39956,-0.64057 2.78191,-1.38931 4.07572,-2.17558 a 0.34009737,0.34009737 0 0 0 5.3e-4,-5.3e-4 c 0.74274,-0.45432 1.47329,-0.92885 2.18902,-1.42575 a 0.34009737,0.34009737 0 0 0 0.12454,-0.39894 c -1.00452,-2.68601 -2.0093,-5.3719 -3.01377,-8.057914 1.80429,-1.474605 3.45681,-3.128502 4.93665,-4.925282 0.0407,0.02619 0.0674,0.05542 0.15761,0.07028 l -0.0341,-0.01291 0.0977,0.02066 c -0.0262,-0.0016 -0.0443,-0.0046 -0.0636,-0.0078 l 7.90339,2.944005 a 0.34009737,0.34009737 0 0 0 0.39843,-0.125055 c 0.58716,-0.847553 1.16515,-1.741413 1.68258,-2.610694 0.70251,-1.179295 1.34902,-2.39386 1.9234,-3.643188 a 0.34009737,0.34009737 0 0 0 -0.0925,-0.40417 c -2.21381,-1.828823 -4.42757,-3.657708 -6.64146,-5.486487 0.38095,-1.039593 0.74589,-2.096148 1.04283,-3.181199 l -5.3e-4,5.29e-4 c 0.26705,-0.968862 0.50575,-2.002104 0.678,-3.017903 a 0.34009737,0.34009737 0 0 0 0,-0.0011 c 0.0271,-0.162515 0.0541,-0.324858 0.0811,-0.487307 2.82705,-0.475239 5.65409,-0.950484 8.48113,-1.425752 a 0.34009737,0.34009737 0 0 0 0.28371,-0.322463 c 0.0796,-2.067587 0.0752,-4.164793 0.0315,-6.241479 a 0.34009737,0.34009737 0 0 0 0,-0.0041 c -0.0122,-0.364435 -0.022,-0.791647 -0.0419,-1.188043 a 0.34009737,0.34009737 0 0 0 -0.002,-0.02479 0.34009737,0.34009737 0 0 0 -0.01,-0.04961 0.34009737,0.34009737 0 0 0 -0.28164,-0.245462 c -2.83527,-0.386429 -5.67241,-0.673806 -8.46201,-1.188558 a 0.34009737,0.34009737 0 0 0 -0.003,-0.01963 c -0.35434,-2.287027 -1.00407,-4.510091 -1.79834,-6.668326 2.21412,-1.828353 4.42833,-3.656602 6.64249,-5.484937 a 0.34009737,0.34009737 0 0 0 0.0931,-0.40309 c -1.00207,-2.200134 -2.24944,-4.273274 -3.60753,-6.255432 a 0.34009737,0.34009737 0 0 0 -0.39946,-0.126606 c -2.69029,1.003348 -5.38054,2.00679 -8.07083,3.010151 -1.47433,-1.797452 -3.12535,-3.445973 -4.92528,-4.91753 1.00449,-2.687388 2.00952,-5.374655 3.01429,-8.062039 a 0.34009737,0.34009737 0 0 0 -0.12454,-0.398425 c -1.97232,-1.367483 -4.06603,-2.589512 -6.26525,-3.601847 a 0.34009737,0.34009737 0 0 0 -0.40411,0.09198 c -1.83159,2.211745 -3.6632,4.42346 -5.49476,6.635255 -0.27102,-0.100639 -0.54258,-0.198977 -0.81545,-0.295074 -0.81861,-0.288287 -1.64654,-0.553683 -2.48719,-0.778761 a 0.34009737,0.34009737 0 0 0 -0.002,-5.29e-4 c -0.45358,-0.119042 -0.962503,-0.247274 -1.446939,-0.353465 l -0.0021,-5.29e-4 c -0.645734,-0.145616 -1.29367,-0.258546 -1.939936,-0.367935 -0.476837,-2.83024 -0.953227,-5.660615 -1.429885,-8.490955 a 0.34009737,0.34009737 0 0 0 -0.03101,-0.0956 0.34009737,0.34009737 0 0 0 -0.01188,-0.02223 0.34009737,0.34009737 0 0 0 -0.264583,-0.164849 c -0.937996,-0.07656 -1.870149,-0.122171 -2.797763,-0.139009 h -0.0011 c -0.433737,-0.0093 -0.866058,-0.009 -1.296561,-0.0057 a 0.34009737,0.34009737 0 0 0 -0.0021,0 z"
       sodipodi:insensitive="true" />
    <path
       id="path976"
       style="fill:#ffffff;fill-opacity:1;fill-rule:evenodd;stroke:#000000;stroke-width:0.0962057;stroke-linecap:butt;stroke-linejoin:miter;stroke-miterlimit:10;stroke-dasharray:none;stroke-opacity:1"
       sodipodi:type="inkscape:offset"
       inkscape:radius="-0.74970734"
       inkscape:original="M 91.330078 29.767578 C 90.401957 29.780408 89.493033 29.818907 88.558594 29.886719 A 0.34009737 0.34009737 0 0 0 88.464844 29.90625 C 88.555754 29.87229 88.472954 29.892521 88.353516 29.894531 C 88.293786 29.895631 88.21268 29.895175 88.101562 29.953125 C 87.990443 30.010975 87.882609 30.171675 87.871094 30.300781 C 87.400278 33.095979 86.930072 35.892492 86.458984 38.6875 C 85.725641 38.812515 85.011599 38.939375 84.275391 39.109375 A 0.34009737 0.34009737 0 0 0 84.273438 39.111328 C 83.853666 39.210528 83.37635 39.323782 82.931641 39.447266 C 81.856335 39.737056 80.803243 40.096633 79.763672 40.482422 C 77.93208 38.270328 76.101128 36.057789 74.269531 33.845703 A 0.34009737 0.34009737 0 0 0 73.867188 33.753906 C 71.852968 34.673569 69.913875 35.803366 68.097656 37.021484 A 0.34009737 0.34009737 0 0 0 68.095703 37.023438 C 67.933588 37.133679 67.76749 37.244771 67.601562 37.359375 A 0.34009737 0.34009737 0 0 0 67.476562 37.757812 C 68.480521 40.442548 69.484251 43.127768 70.488281 45.8125 C 69.869468 46.329554 69.253923 46.849917 68.669922 47.398438 C 67.559381 48.428148 66.533388 49.547264 65.591797 50.734375 C 62.893166 49.731536 60.194717 48.72797 57.496094 47.724609 A 0.34009737 0.34009737 0 0 0 57.097656 47.851562 C 56.414084 48.844051 55.764413 49.859979 55.15625 50.902344 A 0.34009737 0.34009737 0 0 0 55.154297 50.902344 C 54.946628 51.260558 54.715293 51.673284 54.507812 52.060547 C 54.145992 52.731562 53.806305 53.412655 53.488281 54.105469 A 0.34009737 0.34009737 0 0 0 53.580078 54.509766 C 55.795111 56.338536 58.009385 58.167437 60.224609 59.996094 C 59.41083 62.160724 58.810427 64.403005 58.429688 66.683594 C 55.595197 67.15909 52.760215 67.633781 49.925781 68.109375 A 0.34009737 0.34009737 0 0 0 49.644531 68.419922 C 49.590731 69.111879 49.551548 69.832937 49.529297 70.515625 C 49.490217 71.745448 49.498557 72.981815 49.554688 74.195312 C 49.576698 74.687568 49.608221 75.150118 49.644531 75.634766 A 0.34009737 0.34009737 0 0 0 49.925781 75.945312 C 52.758481 76.421607 55.591034 76.898861 58.423828 77.375 C 58.548483 78.102771 58.687371 78.852759 58.847656 79.548828 C 59.199348 81.084337 59.669262 82.588384 60.222656 84.060547 C 58.008797 85.888858 55.795675 87.71844 53.582031 89.546875 A 0.34009737 0.34009737 0 0 0 53.488281 89.951172 C 54.201542 91.500154 55.040686 93.023805 55.933594 94.447266 C 56.30804 95.04144 56.69632 95.629827 57.097656 96.207031 A 0.34009737 0.34009737 0 0 0 57.494141 96.330078 C 60.195016 95.327109 62.896773 94.324762 65.597656 93.322266 C 67.046136 95.145497 68.7107 96.778089 70.498047 98.251953 C 70.477086 98.284439 70.457284 98.322963 70.441406 98.376953 L 70.441406 98.378906 L 70.419922 98.472656 C 70.421822 98.446156 70.424434 98.427563 70.427734 98.408203 L 67.476562 106.29883 A 0.34009737 0.34009737 0 0 0 67.603516 106.69727 C 68.888266 107.57945 70.272539 108.44759 71.675781 109.20703 C 72.393087 109.59585 73.124248 109.96147 73.867188 110.30078 A 0.34009737 0.34009737 0 0 0 74.269531 110.20898 C 76.101086 107.99701 77.932073 105.78416 79.763672 103.57227 C 80.752586 103.94187 81.761436 104.29278 82.767578 104.57031 C 83.392286 104.74464 84.025399 104.89976 84.638672 105.0332 C 85.224155 105.16248 85.859679 105.27325 86.46875 105.375 C 86.467608 105.41645 86.466915 105.4549 86.484375 105.51562 L 86.507812 105.58984 C 86.497493 105.56754 86.492388 105.55216 86.486328 105.53516 C 86.953788 108.31039 87.421211 111.08415 87.888672 113.85938 A 0.34009737 0.34009737 0 0 0 88.195312 114.14258 C 89.087502 114.21598 89.982271 114.2622 90.861328 114.28125 C 91.870129 114.30245 92.883678 114.28839 93.875 114.24219 A 0.34009737 0.34009737 0 0 0 93.876953 114.24219 C 94.135406 114.22959 94.393565 114.21572 94.652344 114.19922 C 94.911119 114.18272 95.168934 114.16418 95.427734 114.14258 A 0.34009737 0.34009737 0 0 0 95.453125 114.13867 A 0.34009737 0.34009737 0 0 0 95.736328 113.85938 C 96.213207 111.02802 96.689208 108.19663 97.166016 105.36523 C 98.291353 105.18015 99.429608 104.95896 100.51562 104.66406 C 100.8573 104.57286 101.24552 104.46211 101.58984 104.35742 C 102.35962 104.12559 103.11369 103.85462 103.86133 103.57617 C 105.69227 105.78702 107.5226 107.99811 109.35352 110.20898 A 0.34009737 0.34009737 0 0 0 109.75781 110.30078 C 111.15737 109.66021 112.53822 108.91127 113.83203 108.125 A 0.34009737 0.34009737 0 0 0 113.83398 108.12305 C 114.57672 107.66873 115.30575 107.19417 116.02148 106.69727 A 0.34009737 0.34009737 0 0 0 116.14648 106.29883 C 115.14196 103.61282 114.13728 100.9282 113.13281 98.242188 C 114.9371 96.767583 116.59047 95.113186 118.07031 93.316406 C 118.10249 93.337111 118.14039 93.357144 118.19336 93.373047 L 118.19922 93.375 L 118.29102 93.394531 C 118.26482 93.392931 118.24586 93.389919 118.22656 93.386719 L 126.13086 96.330078 A 0.34009737 0.34009737 0 0 0 126.5293 96.205078 C 127.11646 95.357525 127.69351 94.463031 128.21094 93.59375 C 128.91345 92.414455 129.56039 91.2005 130.13477 89.951172 A 0.34009737 0.34009737 0 0 0 130.04297 89.546875 C 127.82916 87.718052 125.61428 85.889326 123.40039 84.060547 C 123.78113 83.02153 124.14651 81.965277 124.44336 80.880859 L 124.44336 80.878906 C 124.71021 79.910562 124.94895 78.876502 125.12109 77.861328 C 125.14819 77.698813 125.17612 77.535496 125.20312 77.373047 C 128.03018 76.897808 130.85655 76.422534 133.68359 75.947266 A 0.34009737 0.34009737 0 0 0 133.9668 75.625 C 134.0464 73.557413 134.04175 71.461452 133.99805 69.384766 A 0.34009737 0.34009737 0 0 0 133.99805 69.380859 C 133.98585 69.016424 133.97693 68.587802 133.95703 68.191406 A 0.34009737 0.34009737 0 0 0 133.95508 68.167969 A 0.34009737 0.34009737 0 0 0 133.94531 68.117188 A 0.34009737 0.34009737 0 0 0 133.66406 67.871094 C 130.82879 67.484665 127.99077 67.198346 125.20117 66.683594 A 0.34009737 0.34009737 0 0 0 125.19922 66.664062 C 124.84488 64.377036 124.19466 62.154329 123.40039 59.996094 C 125.61451 58.167741 127.82881 56.338101 130.04297 54.509766 A 0.34009737 0.34009737 0 0 0 130.13477 54.107422 C 129.1327 51.907288 127.88543 49.83372 126.52734 47.851562 A 0.34009737 0.34009737 0 0 0 126.12891 47.724609 C 123.43862 48.727957 120.74888 49.732967 118.05859 50.736328 C 116.58426 48.938876 114.93274 47.289916 113.13281 45.818359 C 114.1373 43.130971 115.14171 40.443243 116.14648 37.755859 A 0.34009737 0.34009737 0 0 0 116.02148 37.357422 C 114.04916 35.989939 111.95703 34.768194 109.75781 33.755859 A 0.34009737 0.34009737 0 0 0 109.35352 33.847656 C 107.52193 36.059401 105.68898 38.270627 103.85742 40.482422 C 103.5864 40.381783 103.31584 40.283597 103.04297 40.1875 C 102.22436 39.899213 101.39534 39.633281 100.55469 39.408203 A 0.34009737 0.34009737 0 0 0 100.55273 39.408203 C 100.09915 39.289161 99.591858 39.160879 99.107422 39.054688 L 99.103516 39.054688 C 98.457782 38.909072 97.810328 38.796889 97.164062 38.6875 C 96.687225 35.85726 96.211033 33.025652 95.734375 30.195312 A 0.34009737 0.34009737 0 0 0 95.703125 30.099609 A 0.34009737 0.34009737 0 0 0 95.691406 30.078125 A 0.34009737 0.34009737 0 0 0 95.427734 29.912109 C 94.489738 29.835549 93.55652 29.790276 92.628906 29.773438 C 92.195169 29.764138 91.762534 29.764278 91.332031 29.767578 A 0.34009737 0.34009737 0 0 0 91.330078 29.767578 z M 86.486328 105.53516 C 86.482837 105.52541 86.486797 105.52405 86.484375 105.51562 L 86.480469 105.50391 C 86.482269 105.51421 86.484428 105.52486 86.486328 105.53516 z "
       d="m 91.330078,30.517578 c -0.898299,0.0126 -1.77633,0.0504 -2.679687,0.115234 -6.58e-4,4.8e-5 -0.0013,-4.7e-5 -0.002,0 a 0.74978231,0.74978231 0 0 1 -0.07422,0.01367 c -0.458375,2.721579 -0.916277,5.444368 -1.375,8.166016 a 0.74978231,0.74978231 0 0 1 -0.613281,0.613281 c -0.721404,0.12298 -1.413551,0.248532 -2.117188,0.410157 a 0.74978231,0.74978231 0 0 1 -0.02344,0.0059 c -0.419272,0.09908 -0.887179,0.210024 -1.3125,0.328125 a 0.74978231,0.74978231 0 0 1 -0.0059,0.002 c -1.043602,0.281246 -2.074364,0.632474 -3.101562,1.013672 a 0.74978231,0.74978231 0 0 1 -0.839844,-0.224609 c -1.758843,-2.124232 -3.51675,-4.248983 -5.275391,-6.373047 -1.868825,0.87464 -3.688567,1.911957 -5.392578,3.054687 -7.32e-4,4.91e-4 -0.0012,0.0015 -0.002,0.002 -0.07565,0.05144 -0.149698,0.101649 -0.224609,0.152344 0.96652,2.584695 1.933833,5.169375 2.90039,7.753906 a 0.74978231,0.74978231 0 0 1 -0.222656,0.837891 c -0.616609,0.515212 -1.220307,1.026108 -1.785156,1.55664 a 0.74978231,0.74978231 0 0 1 -0.0039,0.002 c -1.080764,1.0021 -2.080626,2.094804 -3,3.253906 a 0.74978231,0.74978231 0 0 1 -0.84961,0.236328 c -2.595253,-0.964423 -5.190073,-1.929648 -7.785156,-2.894531 -0.608554,0.895237 -1.195321,1.80237 -1.740234,2.736328 a 0.74978231,0.74978231 0 0 1 -0.01367,0.01953 c -0.20078,0.346796 -0.42395,0.743621 -0.623047,1.115234 a 0.74978231,0.74978231 0 0 1 0,0.002 c -0.305162,0.565939 -0.586155,1.143159 -0.859375,1.724609 2.130901,1.759363 4.26161,3.51824 6.392578,5.277344 a 0.74978231,0.74978231 0 0 1 0.224609,0.841797 c -0.79651,2.118696 -1.383057,4.313827 -1.755859,6.546875 a 0.74978231,0.74978231 0 0 1 -0.615234,0.617187 c -2.726551,0.457389 -5.453449,0.913724 -8.179688,1.371094 -0.04096,0.581575 -0.07718,1.176461 -0.0957,1.74414 -0.03847,1.210497 -0.03177,2.427652 0.02344,3.621094 a 0.74978231,0.74978231 0 0 1 0,0.002 c 0.01668,0.373091 0.04432,0.731806 0.07031,1.097657 2.725388,0.45832 5.450627,0.916953 8.175781,1.375 a 0.74978231,0.74978231 0 0 1 0.613281,0.613281 c 0.123481,0.720914 0.260905,1.459212 0.416016,2.132812 0.343031,1.497697 0.802301,2.970435 1.345703,4.416016 a 0.74978231,0.74978231 0 0 1 -0.224609,0.841797 c -2.127033,1.756606 -4.25374,3.514403 -6.38086,5.271484 0.669115,1.419351 1.427059,2.826751 2.25,4.138672 0.311982,0.49502 0.638376,0.982136 0.96875,1.464844 2.599496,-0.965255 5.199587,-1.929762 7.798829,-2.894531 a 0.74978231,0.74978231 0 0 1 0.849609,0.236328 c 1.410057,1.774867 3.035102,3.372026 4.789062,4.818359 a 0.74978231,0.74978231 0 0 1 0.183594,0.935547 l -0.0078,0.03125 a 0.74978231,0.74978231 0 0 1 -0.09375,0.226563 l -2.759766,7.378902 c 1.193333,0.80903 2.454392,1.607 3.736328,2.30079 a 0.74978231,0.74978231 0 0 1 0,0.002 c 0.611335,0.33138 1.235425,0.63701 1.865235,0.93164 1.762414,-2.12858 3.524399,-4.25802 5.287109,-6.38672 a 0.74978231,0.74978231 0 0 1 0.839844,-0.22461 c 0.978055,0.36554 1.967586,0.7099 2.941406,0.97852 a 0.74978231,0.74978231 0 0 1 0.002,0 c 0.609297,0.17003 1.230007,0.32255 1.830078,0.45312 a 0.74978231,0.74978231 0 0 1 0.002,0 c 0.561988,0.12409 1.185568,0.23284 1.791016,0.33399 a 0.74978231,0.74978231 0 0 1 0.625,0.70703 v 0.004 l 0.0059,0.0176 a 0.74978231,0.74978231 0 0 1 0.03516,0.22852 c 0.439146,2.60708 0.87725,5.21321 1.316407,7.82031 0.770849,0.0577 1.543857,0.10269 2.302734,0.11914 0.991294,0.0208 1.988241,0.008 2.962891,-0.0371 l 0.03516,-0.002 c 0.244089,-0.012 0.488317,-0.0256 0.730469,-0.041 0.148657,-0.009 0.295551,-0.0222 0.443359,-0.0332 0.459037,-2.72579 0.917879,-5.45165 1.376953,-8.17774 a 0.74978231,0.74978231 0 0 1 0.619141,-0.61523 c 1.110835,-0.18269 2.223783,-0.39857 3.273438,-0.68359 a 0.74978231,0.74978231 0 0 1 0.004,-0.002 c 0.33227,-0.0887 0.71377,-0.19695 1.04882,-0.29883 a 0.74978231,0.74978231 0 0 1 0.002,-0.002 c 0.74477,-0.2243 1.48435,-0.4892 2.22656,-0.76562 a 0.74978231,0.74978231 0 0 1 0.83984,0.22461 c 1.75992,2.12509 3.51957,4.25002 5.2793,6.375 1.27274,-0.59697 2.53961,-1.26814 3.72461,-1.98828 0.64072,-0.39192 1.26506,-0.80692 1.88476,-1.23047 -0.96624,-2.58353 -1.93217,-5.16617 -2.89843,-7.750004 a 0.74978231,0.74978231 0 0 1 0.22851,-0.841797 c 1.76531,-1.442746 3.38479,-3.062689 4.83399,-4.822265 a 0.74978231,0.74978231 0 0 1 0.9375,-0.181641 l 0.0176,0.0039 a 0.74978231,0.74978231 0 0 1 0.23242,0.09375 l 7.40429,2.75586 c 0.51548,-0.755341 1.02729,-1.536161 1.48243,-2.300781 0.63746,-1.070097 1.21297,-2.174295 1.74218,-3.298829 -2.12788,-1.757767 -4.2567,-3.515559 -6.38476,-5.273437 a 0.74978231,0.74978231 0 0 1 -0.22656,-0.835938 c 0.37615,-1.026508 0.73187,-2.058618 1.01953,-3.107422 a 0.74978231,0.74978231 0 0 1 0.004,-0.01172 0.74978231,0.74978231 0 0 1 0,-0.0039 c 0.26096,-0.946969 0.49504,-1.958099 0.66211,-2.94336 l -0.002,0.002 c 0.0274,-0.16457 0.0554,-0.328153 0.082,-0.488281 a 0.74978231,0.74978231 0 0 1 0.61523,-0.617188 c 2.71378,-0.456194 5.42688,-0.91291 8.14063,-1.36914 0.0662,-1.938715 0.0703,-3.902945 0.0293,-5.857422 -6e-5,-0.0018 6e-5,-0.004 0,-0.0059 a 0.74978231,0.74978231 0 0 1 0,-0.01563 c -1e-5,-0.0016 -1e-5,-0.0023 0,-0.0039 -0.009,-0.259322 -0.0173,-0.540662 -0.0274,-0.816406 -2.70701,-0.36163 -5.44007,-0.643327 -8.15625,-1.144531 a 0.74978231,0.74978231 0 0 1 -0.60742,-0.650391 c -4.1e-4,-0.0026 -0.002,-0.0052 -0.002,-0.0078 -0.34497,-2.216355 -0.97745,-4.385398 -1.75781,-6.50586 a 0.74978231,0.74978231 0 0 1 0.22656,-0.83789 c 2.12486,-1.75465 4.24986,-3.510713 6.375,-5.265625 -0.91167,-1.950799 -2.01877,-3.811394 -3.23242,-5.603516 -2.58191,0.963064 -5.16363,1.927476 -7.7461,2.890625 a 0.74978231,0.74978231 0 0 1 -0.84179,-0.228515 c -1.44282,-1.759025 -3.05888,-3.372414 -4.82032,-4.8125 a 0.74978231,0.74978231 0 0 1 -0.22851,-0.841797 c 0.9643,-2.579871 1.92799,-5.160244 2.89258,-7.740235 -1.77921,-1.215353 -3.65319,-2.30319 -5.61133,-3.224609 -1.75841,2.123213 -3.5174,4.246189 -5.27539,6.369141 a 0.74978231,0.74978231 0 0 1 -0.83985,0.224609 c -0.26755,-0.09935 -0.53432,-0.19649 -0.80273,-0.291016 -0.8041,-0.283177 -1.61186,-0.543149 -2.42774,-0.761719 h -0.004 c -0.44143,-0.11584 -0.93142,-0.238258 -1.39258,-0.339843 a 0.74978231,0.74978231 0 0 1 -0.02148,-0.0059 0.74978231,0.74978231 0 0 1 -0.0078,-0.002 C 98.31802,39.64502 97.683406,39.534845 97.039062,39.425781 A 0.74978231,0.74978231 0 0 1 96.423828,38.8125 c -0.458655,-2.722323 -0.916591,-5.445704 -1.375,-8.167969 -0.814184,-0.06028 -1.626781,-0.106448 -2.433594,-0.121093 a 0.74978231,0.74978231 0 0 1 -0.002,0 c -0.422246,-0.0091 -0.84728,-0.0091 -1.273437,-0.0059 h -0.002 a 0.74978231,0.74978231 0 0 1 -0.0059,0 c 0,0 -0.002,0 -0.002,0 z m -5.591797,74.935542 c 0.0085,0.0898 0.0293,0.28126 0.03125,0.28711 l 0.0059,-0.002 c -0.02415,-0.10625 -0.03964,-0.25884 -0.03711,-0.28516 z"
       sodipodi:insensitive="true" />
  </g>
  <g
     inkscape:label="Edge.Cuts"
     inkscape:groupmode="layer"
     id="g968"
     style="display:inline"
     sodipodi:insensitive="true">
    <path
       id="path960"
       style="fill:none;fill-opacity:1;fill-rule:nonzero;stroke:#000000;stroke-width:0.363612;stroke-linecap:butt;stroke-linejoin:miter;stroke-miterlimit:10;stroke-dasharray:none;stroke-opacity:1"
       d="m 345.19922,111.79492 c -3.97817,0.0607 -7.96978,0.2347 -11.92578,0.55274 -1.16518,0.19445 -1.89272,1.32193 -1.93555,2.44922 l -5.18359,30.7832 c -8.3452,1.39399 -16.55124,3.59903 -24.48047,6.54883 -7.13431,-8.61572 -14.2669,-17.23288 -21.40235,-25.84766 -9.19308,4.10721 -17.88065,9.26541 -26.15039,14.99414 -0.64294,0.31011 0.17907,1.08776 0.21875,1.61523 3.74151,10.00567 7.48116,20.00997 11.22266,30.01563 -6.51975,5.41455 -12.64277,11.34335 -17.92188,17.98633 -10.51897,-3.91043 -21.03686,-7.82409 -31.55664,-11.73242 -5.49522,7.94558 -10.55011,16.2273 -14.56836,25.02539 -0.0804,0.5173 -0.92143,1.2056 -0.42578,1.59375 8.54875,7.06068 17.09876,14.11816 25.64844,21.17773 -2.94825,7.92429 -5.14398,16.12705 -6.5664,24.46094 -11.04753,1.85327 -22.09484,3.70853 -33.14258,5.56055 -0.83008,10.02016 -0.8459,20.10526 -0.0274,30.12695 -0.0574,0.71606 1.02778,0.39518 1.50586,0.625 10.55769,1.77568 21.11612,3.55054 31.67383,5.32617 1.40161,8.3338 3.60268,16.52996 6.5625,24.44531 -8.6286,7.12589 -17.25432,14.25528 -25.88476,21.37891 4.06964,8.94613 8.99498,17.49191 14.63085,25.54102 0.32176,0.60325 0.67406,1.11621 1.35157,0.59765 10.26504,-3.81189 20.52996,-7.62538 30.79492,-11.4375 5.30516,6.61 11.39128,12.56649 17.9082,17.97461 -3.86883,10.48678 -7.82855,20.94664 -11.73047,31.42383 8.21961,5.69586 16.83126,10.86208 25.95899,14.97265 0.6298,0.57914 0.90671,-0.41402 1.32617,-0.76953 6.85774,-8.28272 13.71647,-16.56685 20.57422,-24.84961 7.91994,2.96701 16.11953,5.1953 24.46875,6.55664 1.88972,11.03044 3.72081,22.07437 5.5918,33.10938 9.76908,0.85368 19.60753,0.9093 29.38085,0.0879 0.61856,-0.048 1.41694,0.10394 1.28125,-0.77344 1.82134,-10.80563 3.64226,-21.61222 5.4629,-32.41797 8.35306,-1.35632 16.55483,-3.59029 24.4746,-6.5664 7.13696,8.61634 14.27169,17.23459 21.41016,25.84961 9.0836,-4.1031 17.74066,-9.11527 25.90625,-14.82617 0.85572,-0.24227 0.31259,-0.92628 0.12891,-1.49805 -3.7745,-10.09285 -7.54754,-20.18654 -11.32227,-30.2793 6.55691,-5.40053 12.57938,-11.4448 18.00391,-17.98047 10.50406,3.86023 20.98221,7.80936 31.47656,11.70313 5.62103,-8.05734 10.69412,-16.51702 14.76758,-25.4668 0.35981,-0.58002 0.61113,-1.13569 -0.17188,-1.45898 -8.42313,-6.95724 -16.84497,-13.9172 -25.26758,-20.875 2.92502,-7.9238 5.23729,-16.09214 6.5625,-24.44141 11.05459,-1.8589 22.10963,-3.71633 33.16407,-5.57617 0.40214,-10.47636 0.39606,-20.97052 -0.0488,-31.44531 -11.03894,-1.52559 -22.14124,-2.63326 -33.11328,-4.61524 -1.33157,-8.35384 -3.66437,-16.52186 -6.56055,-24.46094 8.62549,-7.12252 17.252,-14.24403 25.87695,-21.36718 -3.96219,-8.88506 -8.93957,-17.28083 -14.44336,-25.29102 -0.3959,-0.37391 -0.5627,-1.45713 -1.23632,-0.96484 -10.33006,3.8527 -20.66214,7.70404 -30.99219,11.55664 -5.41459,-6.55543 -11.45996,-12.58912 -18.02149,-17.9961 3.91548,-10.47068 7.83013,-20.94162 11.7461,-31.4121 -8.21499,-5.7673 -16.90666,-10.86744 -26.05274,-15.01368 -0.6105,-0.49862 -0.86837,0.58233 -1.29882,0.88868 -6.83762,8.25591 -13.67621,16.51153 -20.51368,24.76757 -7.93115,-2.94094 -16.12904,-5.16745 -24.47656,-6.54883 -1.85957,-11.03966 -3.71636,-22.0798 -5.57812,-33.11914 -5.68187,-0.46806 -11.37769,-0.72873 -17.08008,-0.66406 z"
       transform="scale(0.26458333)"
       sodipodi:insensitive="true" />
  </g>
</svg>
